<svg xmlns="http://www.w3.org/2000/svg" width="19.926" height="23.996" viewBox="0 0 19.926 23.996">
  <g id="alarm" transform="translate(-44.197)">
    <g id="Group_1535" data-name="Group 1535" transform="translate(44.197)">
      <path id="Path_1245" data-name="Path 1245" d="M64,17.852a.937.937,0,0,0-1.843.345.938.938,0,0,1-.921,1.112H47.009a.938.938,0,0,1-.921-1.112A9.673,9.673,0,0,1,47.4,14.943a7.414,7.414,0,0,0,1.274-3.976V9.561a5.458,5.458,0,0,1,5.357-5.436h.177a5.449,5.449,0,0,1,5.339,5.436v1.406a6.632,6.632,0,0,0,.942,3.352.937.937,0,1,0,1.649-.892,4.773,4.773,0,0,1-.716-2.46V9.561a7.321,7.321,0,0,0-6.374-7.254V.937a.937.937,0,1,0-1.875,0V2.31A7.345,7.345,0,0,0,46.8,9.561v1.406a5.652,5.652,0,0,1-1.027,3.046,11.39,11.39,0,0,0-1.53,3.84,2.813,2.813,0,0,0,2.764,3.332h4.311a2.812,2.812,0,0,0,5.624,0h4.293A2.813,2.813,0,0,0,64,17.852Zm-9.869,4.269a.938.938,0,0,1-.937-.937H55.07A.938.938,0,0,1,54.133,22.121Z" transform="translate(-44.197)" fill="#026670"/>
      <circle id="Ellipse_26" data-name="Ellipse 26" cx="4" cy="4" r="4" transform="translate(11.926 1.998)" fill="#026670"/>
    </g>
  </g>
</svg>
