<svg xmlns="http://www.w3.org/2000/svg" width="57.645" height="24.453" viewBox="0 0 57.645 24.453">
  <g id="apple-pay" transform="translate(0 -147.404)">
    <g id="Group_1572" data-name="Group 1572" transform="translate(0 147.404)">
      <g id="Group_1570" data-name="Group 1570" transform="translate(0 0)">
        <path id="Path_1257" data-name="Path 1257" d="M73.469,150.557a4.424,4.424,0,0,0,1.018-3.153,4.387,4.387,0,0,0-2.908,1.5,4.141,4.141,0,0,0-1.043,3.031,3.66,3.66,0,0,0,2.932-1.382" transform="translate(-62.574 -147.404)"/>
        <path id="Path_1258" data-name="Path 1258" d="M11.9,189.575c-1.62-.1-3,.919-3.77.919s-1.958-.871-3.239-.847a4.776,4.776,0,0,0-4.06,2.467c-1.74,3-.459,7.449,1.233,9.892.822,1.209,1.812,2.539,3.117,2.491,1.233-.048,1.716-.8,3.215-.8s1.933.8,3.238.774c1.354-.024,2.2-1.209,3.022-2.419a10.731,10.731,0,0,0,1.353-2.781,4.392,4.392,0,0,1-2.634-3.991,4.477,4.477,0,0,1,2.127-3.749,4.63,4.63,0,0,0-3.6-1.958" transform="translate(0 -184.821)"/>
      </g>
      <g id="Group_1571" data-name="Group 1571" transform="translate(19.2 1.383)">
        <path id="Path_1259" data-name="Path 1259" d="M177.338,159.688a5.692,5.692,0,0,1,5.971,5.959,5.755,5.755,0,0,1-6.06,5.985h-3.9v6.2h-2.816V159.688Zm-3.986,9.58h3.231c2.452,0,3.847-1.32,3.847-3.608s-1.4-3.6-3.834-3.6h-3.244Z" transform="translate(-170.536 -159.688)"/>
        <path id="Path_1260" data-name="Path 1260" d="M290.52,210.935c0-2.313,1.773-3.734,4.916-3.91l3.621-.214v-1.018c0-1.471-.993-2.351-2.652-2.351a2.532,2.532,0,0,0-2.791,1.936h-2.565c.151-2.389,2.187-4.149,5.456-4.149,3.206,0,5.255,1.7,5.255,4.35v9.115h-2.6v-2.175h-.063a4.726,4.726,0,0,1-4.174,2.4c-2.59,0-4.4-1.609-4.4-3.985Zm8.537-1.194V208.7l-3.256.2c-1.622.113-2.54.83-2.54,1.961,0,1.157.955,1.911,2.414,1.911A3.17,3.17,0,0,0,299.057,209.741Z" transform="translate(-277.011 -196.552)"/>
        <path id="Path_1261" data-name="Path 1261" d="M401.866,221.442v-2.2a5.025,5.025,0,0,0,.88.05,2.2,2.2,0,0,0,2.351-1.886c0-.025.239-.8.239-.817l-4.777-13.239H403.5l3.345,10.762h.05l3.345-10.762h2.866l-4.954,13.918c-1.131,3.206-2.439,4.237-5.179,4.237a10.5,10.5,0,0,1-1.106-.063Z" transform="translate(-374.66 -198.434)"/>
      </g>
    </g>
  </g>
</svg>
