<svg xmlns="http://www.w3.org/2000/svg" width="13" height="16" viewBox="0 0 13 16">
  <g id="Polygon_2" data-name="Polygon 2" transform="translate(13) rotate(90)" fill="none">
    <path d="M6.3,2.768a2,2,0,0,1,3.407,0l4.421,7.184A2,2,0,0,1,12.421,13H3.579a2,2,0,0,1-1.7-3.048Z" stroke="none"/>
    <path d="M 7.999999046325684 3.81608772277832 C 7.999997138977051 3.81608772277832 7.999995231628418 3.81608772277832 7.999999046325684 3.816078186035156 L 3.579129219055176 10.99999809265137 L 12.42086887359619 10.99999809265137 L 8.000009536743164 3.81608772277832 C 8.000005722045898 3.81608772277832 8.000001907348633 3.81608772277832 7.999999046325684 3.81608772277832 M 7.999999046325684 1.816084861755371 C 8.656415939331055 1.816084861755371 9.312833786010742 2.133353233337402 9.703319549560547 2.767888069152832 L 14.12418937683105 9.951807975769043 C 14.94420909881592 11.28434753417969 13.98550891876221 12.99999809265137 12.42086887359619 12.99999809265137 L 3.579129219055176 12.99999809265137 C 2.01448917388916 12.99999809265137 1.055788993835449 11.28434753417969 1.875808715820312 9.951807975769043 L 6.296679496765137 2.767888069152832 C 6.687164306640625 2.133353233337402 7.343581199645996 1.816084861755371 7.999999046325684 1.816084861755371 Z" stroke="none" fill="currentColor"/>
  </g>
</svg>
