<svg xmlns="http://www.w3.org/2000/svg" width="20" height="24" viewBox="0 0 20 24">
  <g id="Polygon_1" data-name="Polygon 1" transform="translate(20) rotate(90)" fill="none">
    <path d="M10.285,2.858a2,2,0,0,1,3.43,0l8.468,14.113A2,2,0,0,1,20.468,20H3.532a2,2,0,0,1-1.715-3.029Z" stroke="none"/>
    <path d="M 12.00000286102295 3.887306213378906 L 12.00000858306885 3.887294769287109 L 3.532379150390625 17.99998474121094 C 3.532377243041992 17.9999885559082 3.532375335693359 17.99999237060547 3.532373428344727 17.99999618530273 C 3.532375335693359 17.99999618530273 3.532377243041992 17.99999618530273 3.532379150390625 17.99999618530273 L 20.46761894226074 17.99999618530273 L 12.00000953674316 3.887306213378906 C 12.00000667572021 3.887306213378906 12.0000057220459 3.887306213378906 12.00000286102295 3.887306213378906 M 12 1.887302398681641 C 12.66329193115234 1.887302398681641 13.32658386230469 2.210969924926758 13.71498870849609 2.858304977416992 L 22.18260955810547 16.97100448608398 C 22.98242950439453 18.30405616760254 22.02220916748047 19.99999618530273 20.46761894226074 19.99999618530273 L 3.532379150390625 19.99999618530273 C 1.977788925170898 19.99999618530273 1.017568588256836 18.30405616760254 1.817388534545898 16.97100448608398 L 10.28501892089844 2.858304977416992 C 10.67341899871826 2.210969924926758 11.33670902252197 1.887302398681641 12 1.887302398681641 Z" stroke="none" fill="currentColor"/>
  </g>
</svg>
