<svg xmlns="http://www.w3.org/2000/svg" width="18.514" height="20.81" viewBox="0 0 18.514 20.81">
  <g id="bookmark-white" transform="translate(-40.259 -2.209)">
    <path id="Subtraction_1" data-name="Subtraction 1" d="M9151.261,16640.025a1.861,1.861,0,0,1-.756-.154,1.928,1.928,0,0,1-.9-.705,1.829,1.829,0,0,1-.339-1.064v-16.166a1.838,1.838,0,0,1,.339-1.07,1.962,1.962,0,0,1,.9-.705,1.989,1.989,0,0,1,.756-.154h14.023c.074,0,.127,0,.177.008h-7.188v2.2h-6.8v15.355l5.274-4.982,1.528-1.461,1.528,1.461,5.274,4.982v-8.553h2.2v-7.2c0,.02,0,.041,0,.061s0,.043,0,.064v16.166a1.8,1.8,0,0,1-.334,1.064,1.958,1.958,0,0,1-.9.705,1.923,1.923,0,0,1-.756.139,2.047,2.047,0,0,1-1.428-.551l-5.584-5.291-5.583,5.291A2.077,2.077,0,0,1,9151.261,16640.025Z" transform="translate(-9109.006 -16617.008)" fill="currentColor"/>
    <rect id="Rectangle_101" data-name="Rectangle 101" width="2.2" height="12" rx="1.1" transform="translate(51.771 2.209)" fill="currentColor"/>
    <rect id="Rectangle_102" data-name="Rectangle 102" width="2.2" height="12" rx="1.1" transform="translate(46.772 9.408) rotate(-90)" fill="currentColor"/>
  </g>
</svg>
