<svg xmlns="http://www.w3.org/2000/svg" xmlns:xlink="http://www.w3.org/1999/xlink" width="527.4" height="706.843" viewBox="0 0 527.4 706.843">
  <defs>
    <linearGradient id="linear-gradient" x1="0.5" y1="0.31" x2="0.5" y2="0.931" gradientUnits="objectBoundingBox">
      <stop offset="0"/>
      <stop offset="1" stop-opacity="0"/>
    </linearGradient>
  </defs>
  <g id="tree" transform="translate(24.968 -32.624)" opacity="0.2" style="mix-blend-mode: overlay;isolation: isolate">
    <path id="Union_1" data-name="Union 1" d="M242.138,498.16c-15.592-7.619-27.121-13.625-37.336-20.215a74.519,74.519,0,0,0-9,1.229l-.075.049c-3.927,2.113-9.328,8.818-12.97,16.684-.878,6.166-.074,20.131,2.979,25.367,1.38,2.363.743,3.391-.632,1.031-3.045-5.213-4.3-13.629-4.956-19.834-2.171,6.383-3.33,12.77-2.605,17.514.435,2.852-.466,2.809-.9-.037-2.1-13.717,3.879-30.531,10.693-39.477a65.554,65.554,0,0,0-8.554,3.59c-7,3.523-14.811,8.932-22.89,14.525-1.692,1.172-3.4,2.346-5.109,3.518-4.5,4.324-10.114,14.205-11.257,22.1-.132.885-.268,1.842-.462,2.756-.913,4.262-1.862,3.7-1.379.01.093-.687,1.345-11.93,5.053-19.486a170.857,170.857,0,0,1-17.437,9.973c-4.214,2.7-7.588,9.125-9.46,15.611-1.243,4.293-1.625,2.586-1.089-.049a35.953,35.953,0,0,1,5.254-13.738c-2.943.992-16.251,4.2-19.081,4.516-2.069.238-2.288-1.916-.229-2.2,5.106-.705,16.665-4.281,27.948-10.391,9.945-5.385,19.581-12.5,25.494-16.578,1.578-1.092,3.15-2.187,4.71-3.256a64.236,64.236,0,0,1-7.034-2.842l-13.229-5.51c-3.022.932-4.644,7.563-11.748,11.594-1.858,1.061-2.231.014-.431-1.176,4.776-3.152,7.3-9.061,9.71-11.744l-8.031-3.949c-2.069-.967-1.9-2.373.162-1.41,7.852,3.658,15.878,6.361,23.668,9.875,4.094,1.85,9.8,2.342,12.043,1.389a1.21,1.21,0,0,1,.61-.084,131.9,131.9,0,0,1,12.759-7.592,78.057,78.057,0,0,1,20.284-6.91c-9.521-6.92-19.265-15.623-32.542-28.965-6.134-6.164-12.376-13.291-18.729-20.924a3.152,3.152,0,0,1-1.02-.619c-3.457-3.154-13.606-7.24-21.567-8.141-15.131-1.7-30.307-4.709-45.613-6.27-4.028-.408-3.677-2.461.353-2.057l15.755,1.322c-2.958-5.65-4.663-15.768-11.533-24.023-2.6-3.115-1.468-4.219,1.282-1.238,10.515,11.383,10.312,21.738,15.141,25.518l25.5,3.521c4.3.484,9.121,1.043,13.51,1.986-2.214-2.744-4.455-5.529-6.7-8.328-8.414-10.457-21.928-28.141-36.765-43.725-16.832-17.684-35.3-32.16-43.848-37.361-3.457-2.1-2.091-4.838,1.4-2.795,4.771,2.789,26.44,18.205,31.1,22.012-2.909-8.977-3.5-13.953-2.883-23.031.269-4.02,1.705-6.02,1.907.848.313,10.355,3.26,21.893,9.345,29.061,7.834,7.574,18.255,19.154,25.781,28.059-3.01-13.352-.084-29.664.07-30.666.848-5.416,2.75-5.389,2.395,1.156-.075,1.4-.276,2.813-.458,4.125-1.594,11.678,3.652,29.766,9.513,39.369q3.678,4.535,7.289,9.043c11.5,14.318,22.617,28.156,33.179,38.768a168.448,168.448,0,0,0,13.233,11.984c-7.776-17.814-10.518-45.617-.641-62.5,2.047-3.506,3.637-2.816,1.581.691-3.418,5.842-4.3,15.482-3.427,25.957,3.959-7.889,9.964-18.262,17.627-22.812,3.462-2.07,4.107-.137.632,1.938-7.687,4.564-15.437,22.85-16.708,31.963,2.754,13.711,9.082,27.3,14.956,33.443l.109.127c20.223,13.355,32.767,18.553,44.77,23.158a344.524,344.524,0,0,1,4.274-46.232c2.364-14.7,5.954-30.51,10.127-46.98a5.332,5.332,0,0,1-.162-2.033c.883-7.961-3.664-26.125-10.431-38.047-1.959-3.449-3.871-6.939-5.765-10.439-20.051-5.516-38.6-9.174-57.479-22.187-3.682-2.527-7.508-5.549-11.444-8.814a1.4,1.4,0,0,1-.562-.205c-2.048-1.26-7.569-2.387-11.678-2.084-7.8.568-15.772.471-23.659,1.135-2.074.172-2.092-.9-.018-1.072l8.1-.822c-2.038-2.57-3.849-7.521-8.106-11.059-1.607-1.33-1.138-1.992.527-.736,6.393,4.762,7.263,10.008,10.066,11.471l13.228-.633c2.215-.154,4.715-.338,7.018-.264-1.376-1.186-2.773-2.381-4.175-3.586-5.245-4.488-13.742-12.16-22.7-18.635-10.193-7.357-20.9-12.936-25.711-14.75-1.947-.742-1.512-2.25.452-1.543,2.672.953,15.087,6.705,17.8,8.186a26.932,26.932,0,0,1-3.646-11.361c-.229-2.07.311-3.225,1.054.229,1.142,5.213,3.722,10.773,7.465,13.826,4.67,3.09,11.041,7.955,15.685,11.742-2.776-6.461-2.829-14.98-2.86-15.508-.074-2.824.888-2.986,1.332.359.087.727.118,1.451.148,2.123.3,6.063,4.657,14.715,8.528,19.025q2.292,1.937,4.53,3.877c7.183,6.15,14.107,12.105,20.442,16.471a90.342,90.342,0,0,0,7.82,4.816c-5.606-8.285-9.618-22.076-6.213-31.545.7-1.969,1.577-1.762.87.189-1.182,3.291-.729,8.236.7,13.457,1.27-4.369,3.334-10.166,6.766-13.2,1.556-1.371,2.065-.443.5.928-3.453,3.031-5.649,13.014-5.426,17.732,2.689,6.676,7.162,12.947,10.716,15.5l.071.061c11.761,5.1,24.194,7.439,36.461,10.514-5.1-9.332-11.854-18.574-16.071-28.166-6.586-14.969-10.2-30-16.313-41.467l-.065-.057c-3.182-3.127-11.187-6.293-19.779-7.441-6.151.984-19.244,5.891-23.343,10.359-1.85,2.018-3.026,1.717-1.173-.3,4.076-4.451,11.743-8.143,17.477-10.607-6.739-.18-13.185.6-17.508,2.7-2.588,1.268-2.812.389-.224-.873,12.478-6.059,30.306-5.334,40.867-1.477a65.037,65.037,0,0,0-5.956-7.109c-5.436-5.641-12.918-11.5-20.65-17.555q-2.439-1.907-4.89-3.846c-5.452-3.018-16.551-5.443-24.432-4.2-.893.139-1.847.3-2.769.383-4.345.391-4.09-.687-.422-1.318.681-.119,11.792-2.244,20.113-.949a171.239,171.239,0,0,1-14.7-13.7c-3.827-3.221-10.957-4.547-17.711-4.416-4.473.088-2.952-.781-.275-1.055a36.249,36.249,0,0,1,14.678.949c-1.818-2.512-8.826-14.273-9.968-16.885-.845-1.9,1.155-2.754,2.033-.865,2.184,4.666,9.024,14.648,18.2,23.615,8.092,7.9,17.74,14.994,23.386,19.434,1.516,1.186,3.023,2.363,4.508,3.531a64,64,0,0,1,.633-7.561l1.34-14.26c-1.779-2.615-8.594-2.2-14.555-7.791-1.552-1.455-.673-2.127,1-.76,4.43,3.637,10.817,4.293,14.095,5.793l1.394-8.838c.311-2.254,1.7-2.518,1.4-.254-1.169,8.576-1.375,17.041-2.43,25.525-.55,4.459.677,10.057,2.25,11.914a1.191,1.191,0,0,1,.258.559c4.091,3.357,8.242,6.34,11.038,9.934,17.046,21.971,23.769,50.752,29.154,58.754,4.846-9.779,16.032-14.793,18.593-35.117.87-6.885,4.1-6.828,2.737-.025-5.2,26-17.789,28.9-18.154,39.387l20.769,38.852c3.646,6.436,7.736,13.672,10.843,20.707q2.354-8.754,4.789-17.668c5.975-22.037,16.774-58.238,23.435-94.244a53.218,53.218,0,0,0-5.732-5.732l-.058-.014c-2.732-1.191-8.479-1.248-14.116.105-3.594,2.088-10.575,8.287-12.064,12.061-.672,1.7-1.477,1.783-.808.088,1.475-3.752,5.368-7.9,8.359-10.807-4.248,1.5-8.084,3.539-10.271,5.877-1.318,1.41-1.665.918-.347-.484,6.317-6.77,17.608-10.6,25.121-10.729a43.41,43.41,0,0,0-5.426-3c-4.74-2.213-10.8-4.072-17.082-5.992-1.321-.408-2.641-.812-3.967-1.221a30.223,30.223,0,0,0-16.247,3.234c-.514.307-1.072.627-1.634.908-2.61,1.287-2.712.555-.576-.727.4-.236,6.81-4.227,12.311-5.406a113.922,113.922,0,0,1-12.446-5.023c-3.155-1.088-7.922-.205-12.1,1.5-2.771,1.127-2.024.225-.421-.588a24.1,24.1,0,0,1,9.371-2.926c-1.744-1.143-8.919-6.793-10.263-8.137-.98-.988.061-2,1.063-1.033,2.479,2.387,9.138,6.969,17.012,10.359,6.938,2.977,14.656,5.092,19.238,6.508,1.23.375,2.457.748,3.656,1.121A41.607,41.607,0,0,1,261,232.178l-2.592-9.217c-.765-.523-1.991-.457-3.55-.387a16.631,16.631,0,0,1-7.386-.975c-1.327-.527-.937-1.17.435-.709a17.687,17.687,0,0,0,7.082.387,22.558,22.558,0,0,1,3.1-.156l-1.256-5.85c-.343-1.484.457-1.986.813-.492,1.322,5.629,3.225,10.949,4.608,16.494.729,2.908,2.834,6.105,4.257,6.889a.77.77,0,0,1,.295.289A86.4,86.4,0,0,1,276.069,242a53.23,53.23,0,0,1,14.656,10.182c1.484-8.537,2.715-17,3.712-25.184-18.29-8.836-35.464-15.883-51.319-31.818-3.155-3.158-6.366-6.832-9.631-10.764a1.464,1.464,0,0,1-.519-.3c-1.779-1.617-7-3.734-11.1-4.187-7.776-.875-15.589-2.434-23.457-3.229-2.074-.211-1.9-1.27.176-1.061l8.11.682c-1.533-2.9-2.4-8.1-5.937-12.357-1.339-1.6-.759-2.166.656-.635,5.4,5.854,5.307,11.18,7.789,13.125l13.119,1.811c2.205.254,4.691.531,6.945,1.027L225.829,175c-4.332-5.383-11.282-14.486-18.905-22.5-8.668-9.1-18.163-16.549-22.564-19.213-1.779-1.09-1.076-2.486.721-1.432,2.456,1.42,13.6,9.354,16,11.309a26.866,26.866,0,0,1-1.5-11.84c.154-2.068.893-3.1.993.426.163,5.334,1.678,11.271,4.8,14.957,4.029,3.895,9.389,9.85,13.26,14.418-1.547-6.857-.035-15.242.035-15.768.448-2.791,1.423-2.773,1.239.605-.045.721-.146,1.441-.237,2.109-.812,6.016,1.88,15.314,4.894,20.264q1.9,2.323,3.744,4.643c5.931,7.363,11.646,14.494,17.063,19.943a88.131,88.131,0,0,0,6.811,6.168c-3.989-9.174-5.409-23.467-.32-32.152,1.054-1.8,1.871-1.436.816.352-1.762,3.02-2.223,7.965-1.774,13.357,2.052-4.064,5.14-9.381,9.067-11.734,1.784-1.064,2.113-.062.325.994-3.949,2.355-7.943,11.762-8.594,16.443,1.419,7.055,4.666,14.037,7.7,17.2l.052.066c11.155,7.525,23.589,12.2,35.618,17.818,7.328-25.748-5.188-50.7,2.632-79.156a55.507,55.507,0,0,0-6.6-6.754l-.062-.014c-2.732-1.189-8.479-1.246-14.116.107-3.594,2.088-10.575,8.287-12.061,12.057-.672,1.7-1.479,1.787-.808.086,1.472-3.748,5.368-7.891,8.355-10.8-4.248,1.506-8.083,3.541-10.267,5.879-1.317,1.41-1.665.922-.353-.488,6.328-6.766,17.614-10.6,25.127-10.729a44.073,44.073,0,0,0-5.426-2.992c-4.745-2.215-10.8-4.072-17.082-5.992q-1.983-.606-3.967-1.223a30.207,30.207,0,0,0-16.247,3.24c-.515.3-1.076.627-1.635.9-2.609,1.287-2.706.547-.576-.727.4-.23,6.812-4.227,12.307-5.412a113.54,113.54,0,0,1-12.442-5.018c-3.159-1.088-7.925-.205-12.1,1.5-2.772,1.125-2.025.221-.431-.588a24.117,24.117,0,0,1,9.38-2.926c-1.743-1.143-8.923-6.793-10.267-8.137-.98-.988.062-2,1.063-1.033,2.478,2.381,9.138,6.963,17.011,10.359,6.938,2.98,14.661,5.092,19.244,6.5,1.225.379,2.451.754,3.654,1.121a42.35,42.35,0,0,1-1.419-4.863l-2.592-9.217c-.765-.527-1.99-.457-3.555-.387a16.676,16.676,0,0,1-7.38-.971c-1.323-.537-.933-1.174.438-.717a17.694,17.694,0,0,0,7.092.387,22.385,22.385,0,0,1,3.083-.158l-1.247-5.84c-.352-1.488.452-1.99.808-.5,1.319,5.633,3.23,10.953,4.609,16.5.729,2.908,2.83,6.1,4.258,6.883a.836.836,0,0,1,.293.291,85.812,85.812,0,0,1,9.262,3.545,54.1,54.1,0,0,1,16.063,11.574c1.011-2.971,2.21-6.062,3.51-9.232a1.187,1.187,0,0,1-.044-.6c.492-2.387-1.067-7.906-3.686-11.564-4.942-6.955-9.139-14.322-14.249-21.314-1.339-1.84.014-2.275,1.354-.434l5.426,7.127c2.165-2.887,7.464-6.494,9.648-11.8.82-2,1.915-1.832,1.22.189-2.583,7.758-8.764,10.617-9.106,13.77l7.969,11.914a62.555,62.555,0,0,1,4.131,6.354c.76-1.73,1.524-3.49,2.289-5.242,2.869-6.59,8-17.42,11.361-28.205,3.81-12.262,5.1-24.293,4.8-29.437-.113-2.082,2.035-2.271,2.2-.187.237,2.834-.337,16.506-.742,19.584a36.151,36.151,0,0,1,12.451-7.8c2.5-1.029,4.253-.984.268,1.057-5.992,3.09-11.655,7.654-13.5,12.289a174.027,174.027,0,0,1-6.405,19.041c6.7-5.1,17.481-8.488,18.145-8.73,3.532-1.168,4.267-.346.251,1.373-.866.359-1.78.68-2.61.971-7.534,2.662-16.146,10.064-19.524,15.311-.817,1.916-1.643,3.8-2.479,5.689-3.923,9.02-7.719,17.727-9.832,25.266A67.027,67.027,0,0,0,300.1,152.2c7.473-8.4,22.811-17.508,36.677-18.1,2.878-.121,3.093.762.22.885-4.807.2-10.839,2.557-16.687,5.922,6.222-.545,14.705-.918,20.412,1.037,2.587.9,1.687,1.73-.9.826-5.728-1.986-19.59-.09-25.455,1.973a49.745,49.745,0,0,0-11.634,11.6c-6.6,10.816,3.571,46.941.949,66.158l-1.964,17.939c-.563,4-1.227,8.381-1.969,12.986,8.089-3.141,16.752-6.9,30.315-15.855l.065-.1c4.165-4.318,8.607-13.908,10.563-23.57-.91-6.445-6.38-19.328-11.8-22.539-2.443-1.455-1.986-2.834.448-1.365,5.4,3.205,9.652,10.525,12.451,16.07.588-7.383-.031-14.178-2.447-18.293-1.441-2.471-.325-2.971,1.138-.492,6.95,11.9,5.013,31.51-.457,44.088a120.591,120.591,0,0,0,9.323-8.445c7.455-7.494,15.3-17.262,23.412-27.363,1.7-2.105,3.4-4.234,5.128-6.377,4.143-6.768,7.842-19.518,6.7-27.756-.113-.928-.264-1.928-.316-2.92-.237-4.6,1.1-4.641,1.705-.814.105.721,2.157,12.213.03,21.629,5.33-6.281,12.648-14.432,18.185-19.779,4.311-5.061,6.38-13.2,6.608-20.49.145-4.852,1.15-3.453,1.34-.621a36.712,36.712,0,0,1-2.029,16.258c3.281-2.7,18.566-13.553,21.914-15.535,2.482-1.437,3.422.51,1.01,1.986C427,144.8,413.957,155.006,402.1,167.484c-10.466,10.988-19.99,23.475-25.913,30.846-1.607,1.973-3.177,3.934-4.745,5.861,3.1-.65,6.507-1.055,9.543-1.383l17.96-2.482c3.433-2.672,3.273-9.979,10.7-18.023,1.941-2.09,2.741-1.326.9.893-4.837,5.813-6.045,12.957-8.132,16.949l11.114-.953c2.848-.281,3.075,1.174.237,1.455-10.781,1.111-21.492,3.232-32.155,4.424-5.619.641-12.772,3.518-15.206,5.756a2.651,2.651,0,0,1-.721.432c-4.486,5.375-8.884,10.416-13.224,14.746-21.81,21.92-30.083,26.1-54.471,38.006-2.43,13.971-5.368,28.85-8.339,40.916,18.972-21.586,52.687-45.723,81.323-48.686a128.892,128.892,0,0,1,14.841-.479,1.047,1.047,0,0,1,.541-.254c2.395-.426,6.95-3.9,9.4-7.676,4.661-7.152,9.972-13.752,14.6-21.07,1.227-1.916,2.127-.826.91,1.1l-4.648,7.658c3.483.957,8.773,4.57,14.521,4.656,2.166.025,2.407,1.111.264,1.209a23.047,23.047,0,0,1-9.684-1.754c-2.785-1.053-4.872-2.107-6.459-1.674l-8.163,11.779a63.745,63.745,0,0,1-4.4,6.178c1.885.07,3.81.141,5.72.209,7.184.244,19.139,1.051,30.4.23,12.807-.953,24.477-4.166,29.143-6.332,1.9-.875,2.86,1.055.984,1.973-2.54,1.262-15.479,5.738-18.493,6.492a36.222,36.222,0,0,1,11.832,8.723c1.872,1.938,2.474,3.594-.883.639-5.084-4.447-11.4-8.041-16.393-8.059a175.211,175.211,0,0,1-20.061,1.023c7.192,4.357,14.3,13.146,14.767,13.676,2.39,2.859,1.894,3.84-1.177.734-.66-.672-1.288-1.4-1.867-2.074-5.233-6.031-15.286-11.326-21.4-12.547-2.082-.057-4.146-.137-6.207-.225-9.829-.338-19.318-.676-27.112.119a66.061,66.061,0,0,0-9.125,1.59c10.549,3.881,24.651,14.807,30.279,27.49,1.173,2.633.431,3.154-.738.527-1.951-4.4-6.357-9.15-11.633-13.355,2.8,5.6,6.251,13.342,6.523,19.375.109,2.742-.984,2.2-1.1-.535-.25-6.055-7.1-18.262-11.159-22.963-7.307-4.66-15.457-7.393-19.921-7.051l-.092,0c-29.52,11.361-61.61,41.748-73.107,69.381q-2.59,9.645-5.188,19.182c-4.455,16.377-8.835,32.447-12.561,47.758a102.249,102.249,0,0,0,19.915-10.6l.049-.07c2.925-3.037,6.049-9.781,7.424-16.572-.637-4.529-4.485-13.584-8.295-15.842-1.713-1.025-1.393-2,.316-.963,3.8,2.254,6.788,7.4,8.752,11.3.418-5.191-.021-9.973-1.718-12.863-1.01-1.73-.229-2.084.8-.348,4.89,8.369,3.527,22.152-.317,31a84.373,84.373,0,0,0,6.551-5.937c5.242-5.27,10.761-12.133,16.463-19.238,1.194-1.477,2.39-2.973,3.6-4.484,2.913-4.754,5.514-13.717,4.714-19.508-.078-.648-.18-1.357-.224-2.055-.167-3.23.777-3.262,1.2-.572.079.506,1.517,8.59.022,15.205,3.747-4.414,8.9-10.148,12.785-13.9,3.031-3.559,4.485-9.277,4.644-14.414.1-3.4.813-2.422.944-.43a25.83,25.83,0,0,1-1.428,11.43c2.307-1.895,13.054-9.529,15.408-10.928,1.739-1,2.407.363.712,1.4-4.244,2.566-13.418,9.742-21.757,18.514-7.359,7.725-14.055,16.508-18.216,21.688-1.129,1.389-2.231,2.764-3.339,4.115,2.179-.457,4.574-.736,6.709-.971l12.631-1.744c2.412-1.879,2.294-7.012,7.518-12.67,1.367-1.473,1.929-.932.633.629-3.4,4.086-4.253,9.107-5.716,11.914l7.816-.666c2-.2,2.161.82.162,1.02-7.579.775-15.109,2.275-22.6,3.113-3.949.447-8.98,2.471-10.688,4.041a1.735,1.735,0,0,1-.506.3c-3.159,3.783-6.248,7.328-9.3,10.369-15.078,15.158-20.952,18.254-37.458,26.313-2.4,10.311-4.442,20.227-5.949,29.59-1.669,10.381-2.109,30.395-2.657,40.283l36.355-52.826c.308-1.162.87-2.021,1.678-2.154,11.173-.83,20.948-.875,41-6.773l.1-.07c5.246-2.914,12.311-10.777,17.012-19.437,1.022-6.432-.432-20.352-4.672-25.012-1.906-2.1-1.062-3.287.84-1.174,4.218,4.654,6.134,12.9,7.183,19.02,2.729-6.885,4.131-13.566,3.028-18.207-.646-2.785.562-2.936,1.229-.141,3.159,13.424-4.446,31.6-13.364,42.016a123.914,123.914,0,0,0,11.388-5.334c9.327-4.982,19.691-12.016,30.407-19.3,2.245-1.51,4.49-3.043,6.771-4.59,5.944-5.252,13.229-16.357,14.56-24.568.158-.914.313-1.922.554-2.883,1.116-4.467,2.411-4.111,1.863-.281-.11.721-1.517,12.311-6.318,20.693,6.941-4.445,16.33-10.09,23.188-13.57,5.61-3.576,9.974-10.752,12.328-17.664,1.564-4.586,2.118-2.959,1.464-.191a36.487,36.487,0,0,1-6.714,14.941c3.932-1.615,21.73-7.508,25.513-8.422,2.795-.646,3.129,1.49.387,2.191-6.841,1.729-22.314,7.658-37.309,16.107-13.229,7.434-26,16.582-33.821,21.889-2.118,1.414-4.191,2.826-6.261,4.209,3.158.285,6.528.9,9.529,1.477l17.9,2.895c4.063-1.547,6.05-8.576,15.513-14.09,2.47-1.434,3.006-.457.6,1.115-6.331,4.139-9.587,10.615-12.75,13.822l10.909,2.352c2.8.561,2.6,2.016-.2,1.459-10.637-2.109-21.5-3.219-32.041-5.207-5.559-1.037-13.242-.379-16.227,1.041a2.6,2.6,0,0,1-.812.2c-5.865,3.824-11.551,7.355-16.968,10.219-12.073,6.443-20.593,10.344-28.658,13.055,7.987,1.213,15.394,2.982,20.636,5.24,6.357,2.721,4.323,5.555-2.034,2.83-14.06-6.051-39.572-4.086-47.771.475-3.071,3.334-6.484,7.148-10.017,11.234a78.5,78.5,0,0,1,22.854,7.381,130.329,130.329,0,0,1,12.764,7.588,1.139,1.139,0,0,1,.605.084c2.236.953,7.952.465,12.047-1.385,7.785-3.52,15.813-6.221,23.664-9.881,2.064-.967,2.231.443.162,1.41l-8.031,3.949c2.407,2.688,4.929,8.59,9.71,11.744,1.8,1.191,1.428,2.232-.431,1.178-7.1-4.033-8.726-10.664-11.745-11.6l-13.231,5.512a67.354,67.354,0,0,1-7.035,2.842c1.561,1.066,3.128,2.16,4.714,3.256,5.909,4.072,15.544,11.189,25.491,16.576,11.282,6.111,22.842,9.688,27.947,10.391,2.061.285,1.841,2.434-.232,2.2-2.829-.32-16.134-3.529-19.076-4.521A36.061,36.061,0,0,1,375.15,506.4c.531,2.633.154,4.336-1.09.049-1.871-6.484-5.25-12.912-9.459-15.615a170.386,170.386,0,0,1-17.437-9.973c3.7,7.561,4.965,18.8,5.053,19.484.479,3.7-.47,4.258-1.381,0-.2-.914-.328-1.871-.456-2.758-1.146-7.9-6.753-17.781-11.256-22.1q-2.571-1.761-5.114-3.523c-8.08-5.594-15.892-11-22.89-14.525a65.492,65.492,0,0,0-8.555-3.588c6.814,8.943,12.79,25.762,10.7,39.475-.435,2.842-1.34,2.891-.9.039.725-4.744-.436-11.133-2.605-17.518-.659,6.209-1.911,14.623-4.952,19.838-1.379,2.363-2.021,1.33-.641-1.037,3.054-5.234,3.861-19.2,2.979-25.363-3.639-7.865-9.033-14.568-12.966-16.684l-.079-.047a74.308,74.308,0,0,0-8.963-1.23c-13.307,15.873-24.782,39.137-25.68,49.021,1.665,47.484,15.373,153.879,23.835,200.037L257.006,702C258.807,662.7,242.757,547.234,242.138,498.16ZM123.932,546.215c.958-4.992,4.974-12.4,12.407-14.723a32.275,32.275,0,0,0-.993,19.35c1.379,4.434,4.2,14.045,2.583,20.174,1.929-6.365.58-14.463-.865-20.7a28.552,28.552,0,0,1,1.965-17.6c10.886,3.533,15.39,17.076,10.267,27.41-4.024,8.115-9.477,13.4-11.207,22.434C137.631,570.115,121.331,559.781,123.932,546.215Zm-21.085-.961c1.064-3.3,4.411-7.992,9.64-8.945a22.1,22.1,0,0,0-2.289,13.033c.567,3.129,1.679,9.877.066,13.9,1.841-4.162,1.607-9.764,1.146-14.1a19.571,19.571,0,0,1,2.8-11.775c7.087,3.3,9.011,12.867,4.675,19.439-3.409,5.172-7.544,8.3-9.473,14.279C110.136,562.607,99.947,554.238,102.847,545.254ZM77.137,524.48c4.266-2.764,12.4-4.992,19.208-1.238a32.335,32.335,0,0,0-14.652,12.676c-2.249,4.066-7.227,12.754-12.771,15.828,5.922-3.01,10.839-9.592,14.336-14.945a28.563,28.563,0,0,1,14.063-10.76c4.981,10.3-1.674,22.928-12.685,26.379-8.642,2.709-16.221,2.432-23.948,7.438C69.355,550.908,65.543,531.988,77.137,524.48Zm92,10.285c.207-3.473,2.28-8.84,7.109-11.066a22.049,22.049,0,0,0,1.027,13.193c1.327,2.885,4.082,9.146,3.523,13.443.747-4.477-.878-9.846-2.408-13.939a19.588,19.588,0,0,1-.215-12.1c7.685,1.441,11.934,10.221,9.363,17.672-2.013,5.852-5.237,9.908-5.615,16.184C180.51,549.756,168.561,544.18,169.136,534.766ZM338,520.25c.787-5.189,4.622-12.988,12.183-15.686a33.288,33.288,0,0,0-.229,19.982c1.6,4.516,4.9,14.309,3.488,20.693,1.723-6.639,0-14.93-1.739-21.3a29.45,29.45,0,0,1,1.3-18.219c11.362,3.193,16.563,16.973,11.705,27.838-3.818,8.523-9.218,14.193-10.633,23.58C353.1,544.326,335.868,534.34,338,520.25Zm36.607,17.992c-7.329-7.322-7.387-20.146.86-26.279a25.675,25.675,0,0,1,6.726,14.416c.563,5.721,1.74,12.994,5.207,17.859-3.137-4.754-3.493-13.744-3.6-17.918a28.944,28.944,0,0,0-6.4-16.176c6.985-.158,12.534,5,14.784,8.967,6.111,10.795-4.794,24.275-1.608,35C386.512,546.918,380.361,543.986,374.606,538.242Zm-182.633.24c-2.4-2.51-4.942-7.672-3.3-12.729a22.088,22.088,0,0,0,10.391,8.2c3.018.988,9.489,3.207,12.267,6.533-2.786-3.59-7.83-6.037-11.881-7.7a19.573,19.573,0,0,1-9.028-8.049c6.266-4.67,15.6-1.832,19.335,5.109,2.932,5.449,3.727,10.572,8.08,15.105C210.707,540.291,198.506,545.293,191.974,538.482Zm110.948-29.35c.632-4.178,3.726-10.469,9.823-12.645a26.823,26.823,0,0,0-.188,16.111c1.291,3.643,3.954,11.539,2.816,16.684,1.388-5.348,0-12.035-1.4-17.166a23.778,23.778,0,0,1,1.049-14.7c9.161,2.58,13.357,13.686,9.433,22.447-3.075,6.871-7.429,11.443-8.566,19.01C315.1,528.549,301.2,520.494,302.922,509.133ZM411.5,524.73c-12.285-1.375-21.866-13.293-18.739-25.143a30.619,30.619,0,0,1,16.99,8.436c4.775,4.914,11.291,10.83,18.141,12.779-6.463-2.1-13.479-10.211-16.678-14.029a34.6,34.6,0,0,0-18-10.328c6.4-5.342,15.407-4.666,20.46-2.631,13.729,5.521,13.585,26.2,24.533,33.834C429.054,523.971,421.142,525.811,411.5,524.73Zm-121.63-29.09c3.1-1.215,8.6-1.582,12.478,1.709a21.138,21.138,0,0,0-11.041,6.217c-1.972,2.316-6.295,7.232-10.249,8.484,4.191-1.158,8.193-4.736,11.132-7.719a18.761,18.761,0,0,1,10.422-5.066c1.85,7.254-4.06,14.482-11.568,15.26a55.891,55.891,0,0,1-5.794.207c-3.52,0-6.854,0-10.522,1.445C281.446,511.566,281.46,498.945,289.868,495.641Zm-179.235-2.656c3.194-1.357,8.927-1.9,13.075,1.428a22.081,22.081,0,0,0-11.357,6.8c-1.991,2.469-6.371,7.729-10.466,9.143,4.346-1.33,8.427-5.176,11.415-8.369a19.53,19.53,0,0,1,10.732-5.58c2.136,7.518-3.835,15.232-11.646,16.256-6.138.8-11.2-.275-16.989,2.184C102.285,509.846,101.942,496.666,110.633,492.984Zm263.4-7.105A25.7,25.7,0,0,1,385.725,475.1c5.286-2.262,11.863-5.592,15.444-10.373-3.581,4.428-12.034,7.5-15.979,8.857a28.963,28.963,0,0,0-13.479,11.006c-2.268-6.611.958-13.457,4.064-16.811,8.436-9.094,24.581-2.793,33.839-9.08-5.624,6.059-6.551,12.811-10.281,20.033a18.672,18.672,0,0,1-16.273,10.01A15.326,15.326,0,0,1,374.03,485.879ZM103.665,474.545c-3.8-4.883-5.444-9.8-10.5-13.541,3.523,1.531,7.741.953,12,.373,5.171-.7,10.413-1.41,14.568,1.674,2.8,2.074,6.165,6.734,5.4,12a22.079,22.079,0,0,0-11.616-6.34c-3.142-.465-9.895-1.576-13.189-4.383,3.348,3.07,8.729,4.639,13,5.592a19.5,19.5,0,0,1,10.254,6.428,11.947,11.947,0,0,1-8.759,3.619A14.288,14.288,0,0,1,103.665,474.545Zm20.72-22.395c-8.635-3.646-14.429-8.941-23.879-10.158,12.838-1.26,22.481-18.75,36.658-16.914,5.22.672,13.12,4.355,15.993,11.881a33.414,33.414,0,0,0-20.052.2c-4.49,1.707-14.244,5.229-20.681,3.947,6.7,1.584,14.978-.32,21.326-2.2a29.57,29.57,0,0,1,18.3.914c-2.249,8.707-10.694,13.98-19.445,13.98A21.15,21.15,0,0,1,124.385,452.15Zm240.669-1.963a27.325,27.325,0,0,0,14.258-8.023c2.539-2.992,8.123-9.342,13.232-10.953-5.413,1.5-10.584,6.111-14.38,9.961a24.115,24.115,0,0,1-13.443,6.537c-2.391-9.357,5.236-18.689,14.929-19.7a69.555,69.555,0,0,1,7.481-.273c4.543,0,8.845,0,13.581-1.859-8.677,5.951-8.694,22.246-19.551,26.512a17.811,17.811,0,0,1-6.323,1.127A14.982,14.982,0,0,1,365.054,450.188ZM195.5,451.635a27.307,27.307,0,0,1,9.647-13.9c4.961-3.576,11.023-8.561,13.638-14.352-2.689,5.428-10.764,10.572-14.547,12.9a30.844,30.844,0,0,0-11.449,14.547c-3.884-6.338-2.122-14.2.329-18.391,6.652-11.406,24.88-8.6,33.044-17.266-4.433,7.592-3.836,14.818-6.042,23.189-2.229,8.463-10.1,14.566-18.286,14.566A15.978,15.978,0,0,1,195.5,451.635Zm-111.784-36c3.067-1.982,8.9-3.58,13.8-.889a23.2,23.2,0,0,0-10.523,9.1c-1.612,2.916-5.192,9.16-9.178,11.365,4.257-2.16,7.789-6.883,10.3-10.732a20.521,20.521,0,0,1,10.1-7.727c3.581,7.4-1.2,16.467-9.107,18.943-6.208,1.945-11.652,1.754-17.2,5.342C78.13,434.613,75.389,421.021,83.713,415.633Zm-32.2,15.979c-9.371-.176-16.722-2.939-25.943-.559,11.45-5.939,13.914-25.758,27.758-29.322,5.1-1.309,13.8-.826,19.257,5.1a33.409,33.409,0,0,0-18.541,7.621C50.5,417.707,42.762,424.6,36.309,425.793c6.81-1.014,13.79-5.855,18.983-9.965a29.548,29.548,0,0,1,17.332-5.939c1.491,11.617-8.944,21.727-20.725,21.727C51.771,431.615,51.644,431.613,51.514,431.611Zm391.6-2.475c-9.679-1.066-17.249-10.451-14.8-19.8a24.136,24.136,0,0,1,13.4,6.631c3.774,3.871,8.915,8.518,14.318,10.053-5.1-1.648-10.641-8.037-13.167-11.037a27.265,27.265,0,0,0-14.2-8.119c5.039-4.219,12.14-3.7,16.124-2.1,10.83,4.336,10.737,20.631,19.379,26.641C456.952,428.52,450.718,429.971,443.113,429.137Zm-139.189-22.49c-.321-3.689-.9-11.668,1.4-16.182-2.578,4.641-2.9,11.188-2.82,16.3a22.821,22.821,0,0,1-4.508,13.4c-7.9-4.6-9.125-15.926-3.379-23.133,4.513-5.645,9.652-8.852,12.53-15.611-1.744,9.8,9.231,20.617,4.907,30.766-1.59,3.729-5.979,8.83-12.165,9.393A25.759,25.759,0,0,0,303.924,406.646ZM164.079,394.012c-2.18-2.633-6.779-8.373-7.394-12.992.47,4.859,3.646,9.99,6.37,13.818a21.038,21.038,0,0,1,3.58,12.51c-8.383.639-15.228-7.3-14.631-15.762.467-6.639,2.694-11.748,1.341-18.373,3.792,8.334,17.758,10.8,19.779,20.75.743,3.66.083,9.814-4.314,13.471A23.738,23.738,0,0,0,164.079,394.012Zm158.464-.039c-3.52-5.588-4.745-10.984-9.714-15.492,3.572,2,8.1,1.832,12.675,1.664,5.58-.2,11.238-.4,15.338,3.318,2.741,2.492,5.83,7.809,4.459,13.313a23.574,23.574,0,0,0-11.674-7.961c-3.286-.826-10.342-2.715-13.544-6.049,3.229,3.615,8.787,5.85,13.215,7.314a20.823,20.823,0,0,1,10.211,7.9,12.57,12.57,0,0,1-8.283,3A15.215,15.215,0,0,1,322.543,393.973Zm-117.917-2.115a29.6,29.6,0,0,1,14.64-11.021c6.313-2,14.235-5.061,18.892-10.137-4.613,4.674-14.656,7.225-19.331,8.336a33.352,33.352,0,0,0-16.713,11.08c-1.845-7.842,2.637-15.324,6.582-18.809,5.878-5.2,13.9-4.812,21.8-4.422,6.494.322,12.917.643,18.027-2.125-7.14,6.307-8.972,13.936-14.073,21.8a21.617,21.617,0,0,1-17.87,9.709A17.858,17.858,0,0,1,204.626,391.857Zm224.735-5.521a24.145,24.145,0,0,1,14.3-4.371c5.4.229,12.328.084,17.311-2.508-4.838,2.3-13.256,1.455-17.152,1.006a27.2,27.2,0,0,0-15.9,3.834c.77-6.529,6.292-11.014,10.286-12.592,5.922-2.332,11.924.154,17.846,2.646,4.93,2.068,9.8,4.143,14.529,3.436-7.231,2.846-10.764,8.189-16.866,12.793a17.547,17.547,0,0,1-10.549,3.486A15.427,15.427,0,0,1,429.361,386.336Zm-66.13,3.721a22.516,22.516,0,0,0,9.076-10.008c1.213-3,3.933-9.437,7.513-12.033-3.849,2.582-6.7,7.553-8.668,11.559a19.911,19.911,0,0,1-8.835,8.629c-4.314-6.709-.765-16.014,6.563-19.332,5.755-2.6,11.027-3.047,15.952-7.166-5.25,6.93-1.011,19.707-8.408,25.883a14.76,14.76,0,0,1-9,3.266A11.152,11.152,0,0,1,363.231,390.057Zm-177.348-5.764a20.988,20.988,0,0,1,5.03-11.984c3.159-3.477,6.916-8.186,7.953-12.957-1.152,4.508-6.4,9.662-8.862,12.012a23.647,23.647,0,0,0-6.282,12.754c-3.928-4.146-3.858-10.328-2.689-13.871,3.182-9.625,17.319-10.426,22.069-18.236-2.122,6.406-.523,11.74-.84,18.379-.368,7.635-6.706,14.137-14,14.139A12.292,12.292,0,0,1,185.884,384.293ZM64.918,371.035c-1.353-5.041-1.011-9.4-3.708-13.969,4.947,5.207,15.931,3.463,19.973,10.316,1.494,2.521,2.579,7.254.255,11.09a18.59,18.59,0,0,0-6.945-8.74c-2.29-1.393-7.175-4.467-8.81-7.73,1.595,3.482,5.26,6.471,8.265,8.609a16.457,16.457,0,0,1,5.86,8.357,9.685,9.685,0,0,1-3.861.8A11.812,11.812,0,0,1,64.918,371.035ZM126.52,370a20.979,20.979,0,0,1,10.46-7.742c4.5-1.381,10.132-3.51,13.471-7.088-3.3,3.291-10.448,5.041-13.777,5.8a23.692,23.692,0,0,0-11.929,7.768c-1.261-5.58,1.96-10.863,4.78-13.316,4.2-3.66,9.89-3.334,15.5-3.01,4.608.27,9.169.537,12.815-1.4-5.105,4.436-6.449,9.842-10.122,15.391A15.323,15.323,0,0,1,135.1,373.2,12.719,12.719,0,0,1,126.52,370ZM355.964,355.66c-1.428-2.908-4.411-9.221-3.959-13.623-.641,4.59,1.161,10.025,2.834,14.164a19.957,19.957,0,0,1,.545,12.342c-7.881-1.256-12.451-10.105-10.034-17.785,1.9-6.02,5.083-10.25,5.3-16.664,1.665,8.531,14.012,13.891,13.677,23.521-.118,3.543-2.086,9.082-6.954,11.486A22.508,22.508,0,0,0,355.964,355.66Zm-315.4,6.859c-9.367-.176-16.717-2.939-25.935-.562,11.444-5.941,13.905-25.754,27.749-29.318,5.1-1.309,13.8-.824,19.261,5.092a33.434,33.434,0,0,0-18.54,7.633c-3.541,3.25-11.287,10.141-17.736,11.34,6.81-1.012,13.787-5.854,18.976-9.961A29.583,29.583,0,0,1,61.681,340.8c1.486,11.613-8.941,21.725-20.722,21.725C40.827,362.523,40.7,362.523,40.565,362.52Zm424.229-8.846c4.464-5.588,11.15-10.627,18.76-12.572,7.9-2.027,17.859-5.264,23.931-11.186-5.987,5.434-18.526,7.891-24.356,8.939a41.162,41.162,0,0,0-21.309,12.5c-1.739-9.775,4.279-18.672,9.367-22.7,7.578-5.994,17.4-4.979,27.1-3.959,7.978.834,15.873,1.668,22.357-1.4-9.2,7.275-11.981,16.543-18.8,25.869a26.642,26.642,0,0,1-21.275,10.771A22.2,22.2,0,0,1,464.795,353.674Zm-52.437-23c-1.164-5.234-3.5-16.547-1.054-23.439-2.821,7.131-2.044,16.568-.972,23.869a33,33,0,0,1-3.932,20.049c-12.175-5.1-16.071-21.1-9.191-32.49,5.4-8.941,12.157-14.5,15.008-24.719-.654,14.355,17.1,27.785,12.815,43.137-1.572,5.641-6.9,13.771-15.657,15.74A37.257,37.257,0,0,0,412.358,330.676ZM295.5,341.242c-.242-2.754-.672-8.705,1.037-12.07-1.92,3.463-2.157,8.344-2.1,12.154a17,17,0,0,1-3.36,9.994c-5.888-3.426-6.806-11.875-2.522-17.244,3.366-4.213,7.2-6.6,9.35-11.643-1.3,7.3,6.88,15.367,3.655,22.938-1.186,2.781-4.454,6.586-9.072,7.008A19.225,19.225,0,0,0,295.5,341.242Zm137.055-16.279c2.008-13.668,20.8-18.064,25.337-29.674-1.34,9.113,2.064,15.889,3.193,24.879,1.441,11.443-7.271,22.752-18.716,22.512a28.654,28.654,0,0,1,3.937-17.277c3.419-5.4,7.359-12.609,7.632-19.252-.492,6.322-6.317,14.469-9.082,18.2a32.3,32.3,0,0,0-5.43,18.6C433.175,338.311,431.817,330,432.556,324.963ZM121.317,340.6a16.319,16.319,0,0,1,3.914-9.322c2.452-2.711,5.378-6.371,6.187-10.084-.9,3.512-4.978,7.518-6.9,9.346a18.418,18.418,0,0,0-4.885,9.924c-3.059-3.225-3-8.033-2.092-10.795,2.478-7.486,13.484-8.109,17.174-14.189-1.647,4.986-.4,9.137-.654,14.3-.285,5.938-5.213,11-10.884,11A9.6,9.6,0,0,1,121.317,340.6Zm41.488-.457c-7.377-.066-13.186-2.174-20.427-.227,8.959-4.773,10.738-20.4,21.608-23.314,4-1.076,10.856-.764,15.205,3.854a26.321,26.321,0,0,0-14.533,6.156c-2.764,2.586-8.8,8.08-13.874,9.078,5.351-.855,10.808-4.719,14.863-8a23.294,23.294,0,0,1,13.6-4.824c1.271,9.191-6.964,17.279-16.3,17.279Zm158.969-19.322c-1.485-2.338-4.614-7.416-4.644-11.189-.11,3.959,1.932,8.4,3.738,11.752A17.011,17.011,0,0,1,322.5,331.8c-6.806-.33-11.516-7.4-10.189-14.143,1.042-5.295,3.344-9.184,2.923-14.645,2.213,7.082,13.2,10.467,13.825,18.668.233,3.02-.918,7.9-4.819,10.4A19.23,19.23,0,0,0,321.774,320.816Zm38.267.338a20.828,20.828,0,0,1,9.863-8.3c4.354-1.643,9.807-4.1,12.882-7.838-3.062,3.457-10.021,5.633-13.26,6.59a23.535,23.535,0,0,0-11.317,8.418c-1.595-5.436,1.266-10.861,3.9-13.459,7.16-7.061,20.008-1.365,27.73-6.119-4.771,4.7-5.769,10.133-9.055,15.848a15.152,15.152,0,0,1-12.928,7.523A12.477,12.477,0,0,1,360.041,321.154ZM10.756,305.113C6.846,294.828,6.626,285.621,0,276.623c11.479,9.857,34.137,3.848,44.088,17.357,3.66,4.975,6.95,14.666,2.9,23.207a39.2,39.2,0,0,0-16.432-16.844c-5.092-2.43-15.992-7.844-20.123-14.336,4.082,6.963,12.413,12.441,19.165,16.289a34.751,34.751,0,0,1,14.076,16.275,20.517,20.517,0,0,1-10.079,2.605A25.09,25.09,0,0,1,10.756,305.113ZM116.7,320.443c-5.992-.639-10.544-2.812-16.58-1.8,7.657-3.164,10.337-15.717,19.4-17.225,3.339-.557,8.885.238,12.052,4.332a21.428,21.428,0,0,0-12.3,3.854c-2.451,1.881-7.794,5.861-11.989,6.27,4.416-.268,9.151-2.979,12.705-5.32a19.016,19.016,0,0,1,11.433-2.838c.293,7.137-6.213,12.807-13.317,12.807A13.066,13.066,0,0,1,116.7,320.443Zm79.152-10.721c.075-8.123,10.672-12.191,12.382-19.312-.049,5.412,2.481,9.088,3.856,14.232,1.758,6.553-2.42,13.836-9.1,14.613a16.734,16.734,0,0,1,.909-10.377c1.557-3.426,3.273-7.939,2.9-11.83.224,3.721-2.521,8.936-3.831,11.336a18.964,18.964,0,0,0-1.679,11.268C197.289,317.445,195.83,312.709,195.856,309.723Zm144.994-4.74c-1.226-2.846-3.787-9.037-3.146-13.229-.829,4.367.642,9.652,2.044,13.7a19.123,19.123,0,0,1-.058,11.836c-7.481-1.578-11.44-10.26-8.765-17.49,2.1-5.678,5.342-9.574,5.856-15.7,1.187,8.238,12.75,13.953,11.98,23.148-.281,3.389-2.424,8.6-7.2,10.668A21.576,21.576,0,0,0,340.851,304.982Zm-256.43-4.2c-.76-3.551-2.275-11.242-.58-15.91-1.955,4.828-1.48,11.236-.795,16.191a22.337,22.337,0,0,1-2.772,13.57c-8.233-3.523-10.785-14.4-6.062-22.086,3.712-6.031,8.334-9.762,10.324-16.68-.527,9.734,11.44,18.938,8.453,29.324-1.1,3.822-4.759,9.311-10.712,10.594A25.27,25.27,0,0,0,84.421,300.787Zm347.4-5.457c-4.78-3.779-5.689-11.266-1.287-15.412a15.135,15.135,0,0,1,4.911,7.965c.717,3.3,1.9,7.473,4.262,10.074-2.157-2.561-2.979-7.789-3.321-10.221a17.1,17.1,0,0,0-4.846-9.014c4.068-.566,7.662,2.064,9.249,4.232,4.3,5.885-1.144,14.506,1.453,20.561C439.365,299.586,435.569,298.295,431.817,295.33Zm-82.681-15.514c-.189-3.273,1.16-8.537,5.431-11.154A20.841,20.841,0,0,0,357,280.906c1.561,2.557,4.838,8.115,4.794,12.205.2-4.279-1.916-9.131-3.8-12.8A18.412,18.412,0,0,1,356.443,269c7.358.5,12.31,8.252,10.732,15.518-1.239,5.7-3.809,9.859-3.471,15.783C361.46,292.592,349.646,288.7,349.137,279.816ZM467.66,293.266c-8.954-2.18-14.917-11.889-11.485-20.359a22.847,22.847,0,0,1,11.766,7.836c3.066,4.088,7.328,9.07,12.206,11.166-4.579-2.162-9-8.828-11.007-11.947a25.8,25.8,0,0,0-12.336-9.33c5.231-3.348,11.826-2,15.367-.023,9.635,5.377,7.579,20.65,14.956,27.328C480.712,294.35,474.685,294.969,467.66,293.266Zm-218.3-17.672c.3-3.07,2.306-7.775,6.665-9.6a19.6,19.6,0,0,0,.5,11.754c1.089,2.6,3.339,8.254,2.71,12.055.8-3.959-.47-8.777-1.7-12.465a17.386,17.386,0,0,1,.185-10.756c6.783,1.521,10.275,9.455,7.768,15.992-1.978,5.137-4.97,8.639-5.5,14.2C259,289.271,248.558,283.945,249.356,275.594Zm-131.923,14c-2.087-3.709-2.7-7.217-5.746-10.281,4.956,3.117,13.276-.479,17.854,4.123,1.683,1.689,3.5,5.209,2.435,8.707a15.192,15.192,0,0,0-7.246-5.5c-2.086-.639-6.563-2.084-8.519-4.334,1.96,2.43,5.461,4.051,8.26,5.137a13.411,13.411,0,0,1,6.314,5.418,8.049,8.049,0,0,1-4.975,1.668A9.775,9.775,0,0,1,117.434,289.592Zm36.013-11.807c-.021-2.572,1.235-6.658,4.692-8.557a16.369,16.369,0,0,0,1.445,9.713c1.126,2.07,3.493,6.564,3.3,9.771.325-3.354-1.155-7.244-2.5-10.2a14.478,14.478,0,0,1-.791-8.945c5.765.664,9.363,6.947,7.852,12.6-1.191,4.434-3.37,7.6-3.326,12.266C162.651,288.295,153.513,284.795,153.446,277.785Zm44.4,9.451a8.576,8.576,0,0,1,2.908-4.463,13.016,13.016,0,0,0,4.165-4.639c-.8,1.734-3.295,3.426-4.464,4.191a9.67,9.67,0,0,0-3.471,4.684,5.908,5.908,0,0,1-.065-5.793c1.989-3.65,7.759-2.934,10.245-5.738-1.327,2.432-1.072,4.7-1.691,7.357a6.146,6.146,0,0,1-5.77,4.756A5.021,5.021,0,0,1,197.848,287.236Zm27.859-7.713c-2.663-7.383,5.57-14.627,4.731-21.652,1.771,4.92,5.289,7.4,8.268,11.6,3.792,5.344,2.461,13.35-3.338,16.293a16.232,16.232,0,0,1-2.654-9.707c.26-3.623.3-8.285-1.344-11.689,1.449,3.3.716,8.939.333,11.553a18.346,18.346,0,0,0,2.268,10.775C229.595,286.043,226.686,282.242,225.707,279.523ZM184.275,275.5c-1.384-1.908-4.292-6.072-4.5-9.279.1,3.371,2.057,7.043,3.762,9.807a14.572,14.572,0,0,1,1.9,8.779c-5.8.055-10.157-5.725-9.367-11.521.624-4.547,2.39-7.969,1.762-12.59,2.231,5.912,11.739,8.244,12.68,15.188.343,2.553-.391,6.756-3.581,9.076A16.455,16.455,0,0,0,184.275,275.5Zm200.967-1.854a17.618,17.618,0,0,1,10.922-.383c3.766,1.188,8.686,2.395,12.692,1.512-3.849.7-9.63-1.484-12.3-2.545a19.954,19.954,0,0,0-11.95-.3c1.784-4.455,6.528-6.58,9.644-6.936,8.471-.963,14.063,9.555,21.7,10.426-5.641.641-9.146,3.738-14.326,5.834a12.577,12.577,0,0,1-4.72.908C391.618,282.162,386.522,278.926,385.242,273.648ZM82.01,269.682c-6.279-5.312-9.759-11.26-17.359-14.754,5.03,1.041,10.382-.887,15.794-2.816,6.517-2.324,13.12-4.645,19.35-1.779,4.2,1.934,9.858,7.082,10.3,14.139A29.37,29.37,0,0,0,93.234,259.4c-4.209.254-13.3.658-18.355-2.1,5.192,3.084,12.626,3.65,18.443,3.727a26,26,0,0,1,15.1,5.557,16.44,16.44,0,0,1-14.229,7.506A18.924,18.924,0,0,1,82.01,269.682Zm66.02-13.242c-1.445-2.523-4.481-8.018-4.322-11.99-.312,4.154,1.612,8.922,3.344,12.545a17.929,17.929,0,0,1,1.185,11.035c-7.134-.689-11.73-8.361-10-15.381,1.362-5.51,3.977-9.482,3.806-15.242,1.972,7.553,13.352,11.66,13.6,20.314.093,3.186-1.361,8.262-5.588,10.689A20.236,20.236,0,0,0,148.029,256.439Zm73.815-14.35c2.4-1.344,6.876-2.264,10.426,0a17.5,17.5,0,0,0-8.366,6.336c-1.356,2.117-4.353,6.639-7.468,8.111,3.316-1.424,6.2-4.8,8.277-7.58a15.5,15.5,0,0,1,7.982-5.32c2.333,5.748-1.709,12.332-7.785,13.814-4.763,1.158-8.853.746-13.2,3.176C216.709,256.1,215.312,245.738,221.845,242.09ZM121.251,255.42c-1.594-5.07,4.174-9.744,3.8-14.52,1.059,3.373,3.379,5.152,5.272,8.078,2.416,3.723,1.291,9.094-2.707,10.926a10.982,10.982,0,0,1-1.532-6.637c.28-2.447.435-5.6-.581-7.949.893,2.277.233,6.068-.1,7.83a12.367,12.367,0,0,0,1.235,7.346A7.567,7.567,0,0,1,121.251,255.42Zm216.919-2.531c-1.173-6.512,6.688-11.367,6.982-17.328.776,4.342,3.352,6.9,5.231,10.8,2.395,4.979.163,11.436-5.065,13.061a13.644,13.644,0,0,1-.839-8.432c.725-2.977,1.414-6.844.531-9.9.738,2.943-.667,7.525-1.353,9.645a15.442,15.442,0,0,0,.368,9.27C340.481,258.852,338.6,255.279,338.17,252.889ZM463.1,249.951a29.57,29.57,0,0,1,17.112-6.549c6.621-.17,15.078-.928,20.952-4.512-5.72,3.217-16.075,2.887-20.877,2.658a33.4,33.4,0,0,0-19.121,6.025c.4-8.041,6.766-14,11.52-16.248,7.056-3.357,14.613-.8,22.068,1.742,6.19,2.119,12.311,4.236,18.022,2.98-8.6,4.086-12.478,10.908-19.556,17.051a21.55,21.55,0,0,1-14.082,5.191A18.682,18.682,0,0,1,463.1,249.951Zm-101.691,3.57a20.281,20.281,0,0,1,5.979-11.037c3.365-3.039,7.425-7.2,8.883-11.686-1.541,4.217-7.073,8.668-9.673,10.7a22.854,22.854,0,0,0-7.255,11.654c-3.383-4.359-2.719-10.293-1.256-13.584,3.976-8.945,17.645-8.367,22.951-15.428-2.654,5.963-1.621,11.24-2.562,17.588-1.025,6.891-7.058,12.309-13.621,12.309A11.884,11.884,0,0,1,361.412,253.521Zm62.536-10.262a11.8,11.8,0,0,1,7.122,1.787c2.214,1.463,5.162,3.158,7.912,3.334-2.614-.26-5.939-2.75-7.464-3.928a13.371,13.371,0,0,0-7.658-2.422,8.173,8.173,0,0,1,7.519-2.684c5.649.959,7.3,8.787,12.067,10.77-3.761-.637-6.6.711-10.333,1.1a7.919,7.919,0,0,1-.857.045C427.817,251.266,423.759,247.713,423.948,243.26Zm13.659-5.779c-1.687-10.377,10.94-17.895,11.56-27.357,1.125,6.91,5.153,11.055,8.045,17.309,3.677,7.979-.049,18.2-8.4,20.646a21.756,21.756,0,0,1-1.117-13.439c1.235-4.715,2.435-10.848,1.108-15.734,1.1,4.705-1.257,11.955-2.4,15.3a24.565,24.565,0,0,0,.333,14.75C441.127,247.029,438.231,241.3,437.607,237.48Zm-226.259,4.3c-3.484-.16-6.2-1.252-9.652-.457,4.318-2.1,5.426-9.455,10.614-10.652a7.588,7.588,0,0,1,7.122,2.084,12.428,12.428,0,0,0-6.977,2.662c-1.349,1.174-4.3,3.67-6.719,4.047,2.554-.309,5.2-2.043,7.166-3.523a11.065,11.065,0,0,1,6.516-2.047c.437,4.275-3.414,7.895-7.723,7.895C211.581,241.791,211.465,241.787,211.349,241.783Zm-89.676-3.947c-5.992-.635-10.544-2.811-16.58-1.8,7.657-3.166,10.338-15.721,19.4-17.227,3.335-.557,8.885.236,12.052,4.336a21.462,21.462,0,0,0-12.3,3.85c-2.446,1.885-7.789,5.865-11.989,6.27,4.415-.268,9.156-2.975,12.706-5.322A19.057,19.057,0,0,1,136.4,225.1c.288,7.137-6.214,12.807-13.318,12.809A13.084,13.084,0,0,1,121.673,237.836Zm144.409-1.246a11.592,11.592,0,0,1,5.193-4.979c2.368-1.072,5.313-2.637,6.889-4.828-1.576,2.033-5.373,3.5-7.144,4.146a13.118,13.118,0,0,0-6,5.092,7.983,7.983,0,0,1,1.688-7.631c3.734-4.191,11.088-1.48,15.219-4.406-2.486,2.791-2.847,5.848-4.468,9.15a8.441,8.441,0,0,1-7.421,4.666A6.9,6.9,0,0,1,266.082,236.59ZM389.7,229.525c-3.954-7.553,3.84-16.561,1.9-24,2.637,5.029,6.789,7.184,10.61,11.26,4.869,5.2,4.614,14-1.186,18.023a17.546,17.546,0,0,1-4.292-10.049c-.255-3.937-.9-8.963-3.173-12.381,2.048,3.334,2.092,9.516,2.061,12.381a19.973,19.973,0,0,0,4.029,11.256C394.851,235.965,391.155,232.3,389.7,229.525Zm-76.007-9.807c-.431-6.178.949-11.174-1.155-17.1,4.583,7.18,17.763,7.637,20.917,16.533,1.164,3.271,1.353,9.027-2.223,12.969a22.053,22.053,0,0,0-6.1-11.748c-2.346-2.139-7.333-6.828-8.5-11,1.066,4.418,4.661,8.723,7.666,11.895a19.537,19.537,0,0,1,4.93,11.055,11.411,11.411,0,0,1-2.47.27C320.071,232.592,314.188,226.725,313.694,219.719Zm99.473,4.91a16.02,16.02,0,0,1,3.757-9.186c2.386-2.68,5.22-6.3,5.979-9.947-.849,3.449-4.815,7.42-6.687,9.23a18.153,18.153,0,0,0-4.705,9.785c-3.027-3.133-3.018-7.855-2.148-10.57,2.359-7.373,13.149-8.084,16.717-14.086-1.572,4.91-.312,8.971-.5,14.041-.231,5.861-5.07,10.895-10.672,10.9A9.249,9.249,0,0,1,413.167,224.629Zm-212.376-3.365c-4.152-3.766-6.384-7.9-11.476-10.451,3.4.826,7.082-.361,10.812-1.547,4.49-1.432,9.043-2.859,13.221-.764,2.812,1.41,6.546,5.053,6.687,9.869a19.965,19.965,0,0,0-11.356-3.85c-2.878.074-9.078.139-12.451-1.859,3.462,2.219,8.515,2.781,12.469,2.965a17.713,17.713,0,0,1,10.148,4.137,11.142,11.142,0,0,1-9.422,4.785A12.911,12.911,0,0,1,200.791,221.264Zm32.464-.953c-2.188-2.725-3.159-5.479-6.042-7.547,2,.836,4.377.471,6.774.105,2.913-.445,5.866-.883,8.238.818a7.576,7.576,0,0,1,3.146,6.715,12.4,12.4,0,0,0-6.607-3.469c-1.779-.238-5.6-.8-7.486-2.359,1.92,1.7,4.969,2.543,7.386,3.043a10.971,10.971,0,0,1,5.843,3.533,6.761,6.761,0,0,1-5.03,2.121A8.065,8.065,0,0,1,233.255,220.311ZM110.2,212.531c-4.895-1.367-8.383-3.811-13.541-3.811,6.813-1.568,10.791-11.637,18.541-11.633,2.847,0,7.358,1.438,9.419,5.281a18.11,18.11,0,0,0-10.765,1.5c-2.3,1.227-7.3,3.793-10.843,3.551,3.7.387,8.027-1.209,11.3-2.66a16.054,16.054,0,0,1,9.907-.775c-.671,5.346-5.7,8.961-10.983,8.963A11.412,11.412,0,0,1,110.2,212.531Zm160.2-5.615a12.933,12.933,0,0,1,5.588-5.725c2.588-1.279,5.8-3.129,7.478-5.619-1.682,2.314-5.843,4.08-7.79,4.873a14.556,14.556,0,0,0-6.475,5.881c-1.313-3.256.122-6.777,1.59-8.545,4-4.793,12.271-2.055,16.752-5.461-2.662,3.189-2.947,6.607-4.626,10.334a9.366,9.366,0,0,1-8.347,5.469A7.658,7.658,0,0,1,270.4,206.916Zm-47.265-18.178c2.073-1.623,6.146-3.145,9.832-1.531a16.687,16.687,0,0,0-6.951,7.209c-.971,2.2-3.127,6.9-5.838,8.744,2.913-1.828,5.131-5.445,6.683-8.365a14.779,14.779,0,0,1,6.739-6.2c3.044,5.07.2,11.885-5.3,14.174-4.319,1.8-8.233,2.006-11.973,4.941C220.368,202.707,217.517,193.146,223.137,188.738Zm-77.1,4.873c-2.466-6.031-2.721-11.486-6.779-16.725,6.945,5.676,20.284,1.8,26.369,9.664,2.24,2.9,4.323,8.59,2.039,13.709a23.207,23.207,0,0,0-9.97-9.748c-3.049-1.367-9.586-4.422-12.125-8.213,2.517,4.07,7.53,7.2,11.586,9.385a20.527,20.527,0,0,1,8.562,9.441,12.151,12.151,0,0,1-6.238,1.693A14.889,14.889,0,0,1,146.04,193.611Zm42.313,3.322a16,16,0,0,1,8.054-5.822c3.444-1.018,7.768-2.6,10.342-5.3-2.548,2.48-8.018,3.766-10.565,4.314a18.08,18.08,0,0,0-9.174,5.834c-.918-4.271,1.586-8.277,3.761-10.127,3.237-2.754,7.579-2.461,11.858-2.172,3.519.244,7,.484,9.8-.967-3.933,3.344-5.009,7.465-7.856,11.672A11.7,11.7,0,0,1,195,199.447,9.714,9.714,0,0,1,188.353,196.934Zm231.493,1.6a20.279,20.279,0,0,1,5.979-11.037c3.366-3.039,7.426-7.211,8.879-11.691-1.537,4.223-7.068,8.674-9.665,10.693a22.87,22.87,0,0,0-7.254,11.662c-3.382-4.363-2.724-10.295-1.26-13.592,3.976-8.943,17.644-8.359,22.95-15.42-2.649,5.957-1.621,11.238-2.561,17.588-1.022,6.891-7.059,12.307-13.624,12.307A11.919,11.919,0,0,1,419.846,198.529Zm-165.2-9.965a16.636,16.636,0,0,1,9.828-3.125c3.721.123,8.5-.025,11.914-1.85-3.315,1.623-9.125,1.1-11.817.814a18.805,18.805,0,0,0-10.936,2.764c.487-4.51,4.257-7.641,7-8.758,4.069-1.65,8.225.021,12.329,1.7,3.414,1.393,6.787,2.789,10.043,2.266-4.97,2.018-7.367,5.727-11.542,8.941a12.108,12.108,0,0,1-7.376,2.479A10.6,10.6,0,0,1,254.646,188.564Zm59.074,1.578c-2.359-2.527-3.515-5.176-6.511-7,2.038.676,4.357.137,6.7-.4,2.839-.648,5.712-1.3,8.177.2a7.487,7.487,0,0,1,3.6,6.391,12.3,12.3,0,0,0-6.779-2.934c-1.771-.1-5.579-.379-7.557-1.775,2.021,1.539,5.092,2.141,7.509,2.457a10.854,10.854,0,0,1,6.028,3.055,6.767,6.767,0,0,1-5.382,2.486A7.985,7.985,0,0,1,313.721,190.143Zm54.316-12.559c-.979-3.018-2.987-9.564-1.933-13.766-1.266,4.363-.277,9.887.764,14.135a19.494,19.494,0,0,1-1.2,12.043c-7.464-2.328-10.657-11.547-7.244-18.646,2.685-5.58,6.361-9.234,7.47-15.42.417,8.5,11.642,15.43,9.977,24.719-.61,3.42-3.295,8.514-8.352,10.164A22.013,22.013,0,0,0,368.037,177.584Zm-188.26,7.8c-5.022-1.605-8.541-4.275-13.893-4.482,7.126-1.354,11.643-11.646,19.679-11.336,2.965.115,7.574,1.775,9.568,5.848a18.8,18.8,0,0,0-11.225,1.125c-2.435,1.182-7.715,3.656-11.389,3.26,3.831.549,8.374-.936,11.836-2.316a16.642,16.642,0,0,1,10.3-.412c-.882,5.363-5.968,8.867-11.288,8.867A11.838,11.838,0,0,1,179.777,185.385Zm139.971-9.479c-1.787-5.82-1.577-10.918-4.911-16.133,5.983,5.867,18.725,3.365,23.729,11.2,1.841,2.877,3.308,8.35.755,12.926a21.707,21.707,0,0,0-8.462-9.9c-2.728-1.529-8.554-4.914-10.6-8.652,2.009,3.994,6.41,7.324,10,9.7a19.215,19.215,0,0,1,7.183,9.5,11.3,11.3,0,0,1-4.89,1.1A13.815,13.815,0,0,1,319.748,175.906ZM127.336,163.389c-3.053-3.873-9.5-12.328-10.228-19.018.509,7.043,4.926,14.555,8.722,20.184a30.355,30.355,0,0,1,4.735,18.191c-12.13.629-21.743-11.084-20.583-23.275.905-9.568,4.3-16.877,2.583-26.488,5.189,12.166,25.271,16.221,27.833,30.658.953,5.311-.22,14.178-6.7,19.3A34.278,34.278,0,0,0,127.336,163.389ZM240.42,172.52c-1.278-1.947-3.963-6.178-4.029-9.35-.048,3.326,1.719,7.033,3.273,9.832a14.228,14.228,0,0,1,1.48,8.738c-5.72-.191-9.757-6.09-8.721-11.766.822-4.463,2.707-7.758,2.293-12.34,1.942,5.922,11.209,8.645,11.832,15.531.229,2.533-.686,6.654-3.937,8.795A16.151,16.151,0,0,0,240.42,172.52Zm167.563-.674c.766-6.219,9.244-8.412,11.182-13.725-.509,4.141,1.1,7.184,1.714,11.248.773,5.176-3.062,10.4-8.256,10.408a12.957,12.957,0,0,1,1.6-7.873c1.494-2.49,3.2-5.8,3.261-8.818-.159,2.875-2.716,6.635-3.929,8.352a14.671,14.671,0,0,0-2.267,8.5C408.4,177.893,407.7,174.139,407.982,171.846Zm-143.947-3.189a20.694,20.694,0,0,1,9.218-8.9c4.213-1.924,9.446-4.727,12.244-8.643-2.8,3.641-9.556,6.262-12.706,7.432a23.381,23.381,0,0,0-10.649,9.105c-1.951-5.275.522-10.852,2.961-13.605,6.625-7.482,19.745-2.7,27.081-7.934-4.415,4.98-5.034,10.434-7.908,16.32a15.021,15.021,0,0,1-13.223,8.363A12.307,12.307,0,0,1,264.035,168.656Zm178.757-5.043c-7.627-1.4-13.105-9.287-10.619-16.572a19.247,19.247,0,0,1,10.269,6.037c2.768,3.291,6.586,7.275,10.79,8.8-3.954-1.6-7.987-6.988-9.824-9.518a21.665,21.665,0,0,0-10.812-7.264c4.244-3.062,9.847-2.24,12.922-.746,8.355,4.066,7.35,17.008,13.866,22.273C453.819,163.916,448.781,164.715,442.792,163.613ZM250.31,144.748c2.009-1.441,5.9-2.7,9.3-1.027a15.688,15.688,0,0,0-6.832,6.475c-1,2.021-3.229,6.35-5.852,7.961,2.812-1.594,5.048-4.889,6.629-7.566a13.858,13.858,0,0,1,6.586-5.535c2.645,4.891-.307,11.17-5.575,13.084-4.134,1.5-7.82,1.537-11.458,4.141C247.116,157.738,244.849,148.646,250.31,144.748Zm-63.046,11.3c-1.116-3.643-.979-6.832-3.062-10.1,3.739,3.676,11.709,2.119,14.837,7.018a8.268,8.268,0,0,1,.466,8.084,13.6,13.6,0,0,0-5.29-6.2c-1.7-.963-5.347-3.08-6.626-5.422,1.253,2.506,4.007,4.588,6.253,6.072a12,12,0,0,1,4.485,5.949,7.1,7.1,0,0,1-3.05.686A8.647,8.647,0,0,1,187.264,156.053ZM376.78,142.137c-.07-9.287,11.972-14.133,13.8-22.309.04,6.191,3,10.348,4.666,16.2,2.131,7.457-2.5,15.865-10.131,16.871a19.218,19.218,0,0,1,.847-11.875c1.719-3.945,3.595-9.139,3.1-13.584.321,4.258-2.724,10.268-4.174,13.029a21.729,21.729,0,0,0-1.709,12.918C378.556,150.947,376.8,145.557,376.78,142.137Zm-33.755,2.111a14.457,14.457,0,0,1,8.84,1.555c2.824,1.59,6.567,3.4,9.938,3.373-3.211-.086-7.481-2.834-9.441-4.135a16.392,16.392,0,0,0-9.551-2.283c2.191-3.277,6.365-4.174,8.932-3.924,6.968.668,9.666,10.07,15.653,12.074-4.639-.447-7.987,1.445-12.5,2.24a10.07,10.07,0,0,1-1.771.156C347.974,153.3,343.171,149.447,343.025,144.248Zm-123.742-7.6c-.435-1.3-1.331-4.129-.892-5.957a12.8,12.8,0,0,0,.386,6.121,8.486,8.486,0,0,1-.465,5.223c-3.247-.975-4.666-4.955-3.216-8.049,1.138-2.43,2.719-4.025,3.171-6.713.216,3.686,5.11,6.639,4.42,10.672a5.826,5.826,0,0,1-3.575,4.438A9.536,9.536,0,0,0,219.283,136.65Zm219.56,1.252a28.9,28.9,0,0,1,13.018-12.258c5.905-2.609,13.259-6.432,17.227-11.844-3.968,5.021-13.435,8.57-17.851,10.148a32.579,32.579,0,0,0-15.017,12.529c-2.623-7.406.918-15.139,4.366-18.939,9.368-10.324,27.592-3.436,37.92-10.611-6.242,6.877-7.2,14.473-11.312,22.641a20.976,20.976,0,0,1-18.372,11.441A17.2,17.2,0,0,1,438.843,137.9Zm-180.7.709c-4.288-1-7.391-2.984-11.858-2.795,5.839-1.609,8.905-10.471,15.605-10.75,2.475-.105,6.424.971,8.349,4.221a15.679,15.679,0,0,0-9.258,1.691c-1.946,1.148-6.173,3.555-9.253,3.477,3.221.2,6.9-1.34,9.688-2.727a13.906,13.906,0,0,1,8.542-1.029c-.4,4.793-4.866,8.164-9.6,8.164A9.735,9.735,0,0,1,258.144,138.611Zm82.808-5.937a20.53,20.53,0,0,1,11.261-5.877c4.547-.652,10.312-1.85,14.068-4.785-3.682,2.666-10.839,3.273-14.169,3.5a23.123,23.123,0,0,0-12.68,5.682c-.374-5.572,3.541-10.182,6.63-12.115,4.595-2.881,10.012-1.721,15.363-.561,4.42.961,8.8,1.918,12.623.6-5.6,3.508-7.72,8.516-12.1,13.313a15,15,0,0,1-10.994,4.8A12.7,12.7,0,0,1,340.951,132.674Zm-108.386-7.551a7.411,7.411,0,0,1,7.151,1.221,12.148,12.148,0,0,0-6.476,3.375c-1.182,1.291-3.77,4.041-6.072,4.684,2.438-.59,4.812-2.572,6.564-4.227a10.759,10.759,0,0,1,6.1-2.719c.927,4.217-2.623,8.258-6.956,8.561a32.056,32.056,0,0,1-3.325.008,15.543,15.543,0,0,0-6.107.635C227.406,134.129,227.656,126.863,232.565,125.123Zm91.488,9.568a14.5,14.5,0,0,1,2.8-8.529c1.981-2.564,4.306-6.014,4.763-9.354-.546,3.168-3.876,7-5.444,8.758a16.307,16.307,0,0,0-3.62,9.125c-2.935-2.637-3.225-6.9-2.613-9.4,1.661-6.8,11.348-8.129,14.186-13.77-1.106,4.531.29,8.111.436,12.7.174,5.506-4.2,10.527-9.529,10.527A8.765,8.765,0,0,1,324.054,134.691Zm75.155-11.115c-3.748-10.52,8-20.785,6.832-30.785,2.5,7,7.5,10.553,11.713,16.537,5.369,7.627,3.436,19-4.824,23.166a23.118,23.118,0,0,1-3.738-13.818c.386-5.162.47-11.795-1.854-16.641,2.048,4.7.975,12.729.422,16.441a26.1,26.1,0,0,0,3.172,15.332C404.714,132.863,400.593,127.447,399.209,123.576Zm-238.605-.26c-2.465-6.037-2.719-11.492-6.774-16.73,6.941,5.682,20.285,1.8,26.365,9.666,2.24,2.895,4.327,8.594,2.047,13.707a23.249,23.249,0,0,0-9.978-9.748c-3.049-1.367-9.582-4.422-12.126-8.213,2.522,4.074,7.531,7.2,11.591,9.385a20.64,20.64,0,0,1,8.566,9.441,12.168,12.168,0,0,1-6.247,1.693A14.88,14.88,0,0,1,160.6,123.316Zm39.01-2.539c-.755-1.582-2.311-5.018-2.034-7.395-.386,2.482.55,5.426,1.424,7.68a10.764,10.764,0,0,1,.188,6.674c-4.248-.742-6.647-5.562-5.28-9.687,1.076-3.244,2.825-5.506,3-8.967.83,4.623,7.46,7.613,7.209,12.814a7.424,7.424,0,0,1-3.848,6.156A12.208,12.208,0,0,0,199.613,120.777Zm13.536,4.561c-2.917-.475-5.8-.945-8.242.053,3.528-2.479,4.736-5.822,7.43-9.1,3.432-4.184,10.084-4.867,13.689-.9a13.417,13.417,0,0,1-7.139,4.23c-2.948.58-6.665,1.564-9.011,3.617,2.307-1.875,6.959-2.518,9.12-2.783a15.164,15.164,0,0,0,8.076-4.146c.435,3.617-1.956,6.758-3.906,8.133a8.573,8.573,0,0,1-5.1,1.432A31.607,31.607,0,0,1,213.149,125.338Zm61.236-6.311a12.334,12.334,0,0,1,3.854-6.572c2.1-1.775,4.657-4.217,5.633-6.906-1.02,2.531-4.473,5.109-6.085,6.289a13.87,13.87,0,0,0-4.645,6.922c-1.964-2.715-1.441-6.3-.483-8.271,2.6-5.344,10.874-4.705,14.244-8.881-1.731,3.561-1.213,6.785-1.92,10.615a8.752,8.752,0,0,1-8.269,7.193A7.194,7.194,0,0,1,274.386,119.027Zm24.7-14.414c.559-5.1,7.473-6.973,9-11.336-.378,3.389.975,5.863,1.515,9.18.687,4.227-2.4,8.541-6.646,8.6a10.621,10.621,0,0,1,1.229-6.459c1.2-2.057,2.566-4.775,2.58-7.244-.1,2.35-2.153,5.447-3.129,6.871a11.953,11.953,0,0,0-1.771,6.973A7.3,7.3,0,0,1,299.086,104.613ZM195.063,100.4c-6.366-6.807-9.49-13.961-17.57-18.893,5.5,1.832,11.757.383,18.084-1.068,7.653-1.748,15.407-3.5,22.051.555,4.464,2.729,10.148,9.271,9.705,17.268a33.218,33.218,0,0,0-18.286-7.941c-4.767-.275-15.048-1.025-20.372-4.795,5.439,4.15,13.726,5.775,20.254,6.631a29.447,29.447,0,0,1,16.247,8.252,18.247,18.247,0,0,1-14.507,6.705A21.488,21.488,0,0,1,195.063,100.4Zm42.277-5.291c-.962-5.219-.255-9.607-2.609-14.453,4.583,5.682,15.852,4.816,19.389,12.094,1.3,2.678,2.007,7.563-.663,11.256a18.9,18.9,0,0,0-6.318-9.428c-2.2-1.6-6.894-5.113-8.286-8.561,1.331,3.664,4.8,6.988,7.662,9.41a16.755,16.755,0,0,1,5.255,8.945,9.824,9.824,0,0,1-3.171.521C243.3,104.895,238.353,100.652,237.34,95.109Zm104.047-.078a19.226,19.226,0,0,1,11.739-2c4.24.729,9.731,1.316,13.928-.225-4.056,1.32-10.615-.193-13.65-.949a21.71,21.71,0,0,0-12.952,1.418c1.278-5.078,6.094-8.066,9.406-8.9,4.9-1.238,9.385,1.322,13.8,3.885,3.694,2.139,7.342,4.283,11.159,4.2-6,1.518-9.336,5.377-14.626,8.4a13.891,13.891,0,0,1-6.863,1.795C348.24,102.652,343.3,99.936,341.387,95.031ZM262.5,91.578c-.746-1.156-2.315-3.672-2.338-5.545a12.673,12.673,0,0,0,1.89,5.83,8.461,8.461,0,0,1,.835,5.176c-3.383-.146-5.742-3.65-5.105-7,.5-2.631,1.64-4.568,1.419-7.285,1.117,3.516,6.586,5.168,6.92,9.246a5.821,5.821,0,0,1-2.368,5.18A9.564,9.564,0,0,0,262.5,91.578Zm5.519-2.455c-7.812-7.039-2.667-20.795-8.1-28.566,5.2,4.691,10.932,5.395,17.1,8.471,7.859,3.918,11.344,14.211,6.361,21.355A21.767,21.767,0,0,1,274.1,80.6c-1.985-4.451-4.886-9.982-8.98-12.965,3.8,2.982,6.5,10.113,7.7,13.439a24.584,24.584,0,0,0,9.488,11.287,12.117,12.117,0,0,1-4.105.7A16.036,16.036,0,0,1,268.016,89.123Zm24.076-4.471c-3.761-4.812.566-12.174-1.767-17.168,2.51,3.207,5.716,4.191,8.937,6.568,4.108,3.035,5.066,9.273,1.5,12.865a12.641,12.641,0,0,1-4.332-6.535c-.686-2.746-1.792-6.2-3.835-8.316,1.876,2.088,2.7,6.436,3.058,8.461a14.266,14.266,0,0,0,4.3,7.416,6.831,6.831,0,0,1-1.169.1A9.012,9.012,0,0,1,292.092,84.652Zm52.423-14.373a23.932,23.932,0,0,1,12.6-7.783c5.229-1.131,11.827-3.012,15.948-6.742-4.056,3.414-12.328,4.719-16.172,5.264a26.956,26.956,0,0,0-14.267,7.666c-.9-6.441,3.26-12.125,6.691-14.639,5.105-3.74,11.511-2.84,17.833-1.934,5.216.742,10.373,1.484,14.7-.369-6.213,4.543-8.26,10.545-12.943,16.488a17.488,17.488,0,0,1-13.593,6.551A14.646,14.646,0,0,1,344.515,70.279Zm-47.229-1.02c-3.774-4.785-5.417-9.615-10.413-13.27,3.479,1.49,7.628.893,11.818.295,5.083-.725,10.236-1.449,14.35,1.559,2.763,2.021,6.106,6.6,5.386,11.775a21.806,21.806,0,0,0-11.475-6.168c-3.1-.436-9.75-1.484-13.015-4.232,3.317,3,8.629,4.51,12.83,5.428A19.226,19.226,0,0,1,316.9,70.9a11.784,11.784,0,0,1-8.688,3.621A14.048,14.048,0,0,1,297.285,69.26Zm23.777-36.576c-2.9-4.248-9.016-13.5-9.3-20.514.03,7.365,4.086,15.492,7.649,21.621a31.68,31.68,0,0,1,3.642,19.26c-12.666-.2-21.844-13.07-19.779-25.67C304.9,17.486,308.944,10.129,307.843,0c4.534,13.021,25.144,18.658,26.8,33.865.611,5.6-1.235,14.736-8.339,19.613A35.789,35.789,0,0,0,321.063,32.684Z" transform="translate(-21.961 36.936)" stroke="rgba(0,0,0,0)" stroke-miterlimit="10" stroke-width="1" fill="url(#linear-gradient)"/>
  </g>
</svg>
