<svg xmlns="http://www.w3.org/2000/svg" width="17.003" height="17.003" viewBox="0 0 17.003 17.003">
  <g id="fullscreen" transform="translate(-102 -2)">
    <path id="Path_118" data-name="Path 118" d="M9.681,3a1,1,0,0,0-1-1H3A1,1,0,0,0,2,3V8.678a1,1,0,0,0,2.008,0V4.008h4.67A1,1,0,0,0,9.681,3Z" transform="translate(100)" fill="currentColor"/>
    <path id="Path_119" data-name="Path 119" d="M24.678,18a1,1,0,0,0-1,1v4.67H19a1,1,0,1,0,0,2.008h5.674a1,1,0,0,0,1-1V19A1,1,0,0,0,24.678,18Z" transform="translate(93.322 -6.678)" fill="currentColor"/>
  </g>
</svg>
