<svg xmlns="http://www.w3.org/2000/svg" width="61.443" height="24.107" viewBox="0 0 61.443 24.107">
  <g id="G_Pay_Lockup_1_" transform="translate(0 -155.558)">
    <g id="Pay_Typeface_3_" transform="translate(26.421 156.839)">
      <path id="Letter_p_3_" d="M222.426,176.673v7.108H220.17V166.229h5.98a5.393,5.393,0,0,1,3.865,1.516,5.061,5.061,0,0,1,0,7.425,5.384,5.384,0,0,1-3.865,1.492h-3.724Zm0-8.282v6.121H226.2a3.01,3.01,0,0,0,2.232-.9,2.958,2.958,0,0,0,.9-2.15A3.13,3.13,0,0,0,226.2,168.4h-3.771Z" transform="translate(-220.17 -166.229)" fill="#383e41"/>
      <path id="Letter_a_3_" d="M326.439,209.108a5.58,5.58,0,0,1,3.947,1.339,4.752,4.752,0,0,1,1.445,3.665v7.4h-2.15v-1.668h-.094a4.29,4.29,0,0,1-3.724,2.056,4.835,4.835,0,0,1-3.325-1.175,3.751,3.751,0,0,1-1.339-2.937,3.547,3.547,0,0,1,1.41-2.961,5.915,5.915,0,0,1,3.759-1.1,6.572,6.572,0,0,1,3.3.74v-.517a2.56,2.56,0,0,0-.928-2,3.184,3.184,0,0,0-2.185-.822,3.427,3.427,0,0,0-2.984,1.6l-1.985-1.245A5.51,5.51,0,0,1,326.439,209.108Zm-2.913,8.717a1.779,1.779,0,0,0,.752,1.469,2.761,2.761,0,0,0,1.751.587,3.577,3.577,0,0,0,2.538-1.057,3.318,3.318,0,0,0,1.116-2.479,4.646,4.646,0,0,0-2.937-.834,3.855,3.855,0,0,0-2.291.658A2.006,2.006,0,0,0,323.525,217.825Z" transform="translate(-309.075 -203.962)" fill="#383e41"/>
      <path id="Letter_y_3_" d="M423.956,212.338l-7.519,17.293h-2.326l2.8-6.05-4.958-11.243H414.4l3.571,8.623h.047l3.477-8.623h2.455Z" transform="translate(-388.935 -206.805)" fill="#383e41"/>
    </g>
    <path id="Path_1253" data-name="Path 1253" d="M93.3,223.684H83.849v3.877h5.445a4.664,4.664,0,0,1-2.021,3.123h0l-.1,2.317,3.339.2h0a9.853,9.853,0,0,0,2.977-7.4A11.885,11.885,0,0,0,93.3,223.684Z" transform="translate(-73.787 -59.951)" fill="#0085f7"/>
    <path id="Path_1254" data-name="Path 1254" d="M21.34,255.4h0a6.1,6.1,0,0,1-9.073-3.19h0l-2.788-.441-.555,3.035a10.065,10.065,0,0,0,8.994,5.542,9.6,9.6,0,0,0,6.663-2.432h0Z" transform="translate(-7.852 -84.669)" fill="#00a94b"/>
    <path id="Path_1255" data-name="Path 1255" d="M4.1,206.265a6.067,6.067,0,0,1,.315-1.925l-.871-2.594H1.07a10.078,10.078,0,0,0,0,9.039h0l3.343-2.594h0A6.066,6.066,0,0,1,4.1,206.265Z" transform="translate(0 -40.644)" fill="#fb0"/>
    <path id="Path_1256" data-name="Path 1256" d="M17.912,155.558A10.066,10.066,0,0,0,8.918,161.1l3.343,2.594a6.021,6.021,0,0,1,5.651-4.154,5.469,5.469,0,0,1,3.862,1.51l2.872-2.87A9.668,9.668,0,0,0,17.912,155.558Z" transform="translate(-7.848)" fill="#ff4031"/>
  </g>
</svg>
