<svg xmlns="http://www.w3.org/2000/svg" width="24.517" height="22.721" viewBox="0 0 24.517 22.721">
  <path id="gift" d="M24.727,7.654H24.2a3.66,3.66,0,0,0,.426-1.689A3.711,3.711,0,0,0,18.04,3.616c-.036.053-1.555,2.066-2.532,3.365-.978-1.3-2.5-3.322-2.541-3.377A3.711,3.711,0,0,0,6.389,5.965a3.66,3.66,0,0,0,.426,1.689H6.29a3.044,3.044,0,0,0-3.04,3.04v3.815a1.013,1.013,0,0,0,1.013,1.013H4.6v4.352A4.57,4.57,0,0,0,9.667,24.94H21.35a4.57,4.57,0,0,0,5.066-5.066V15.522h.338a1.013,1.013,0,0,0,1.013-1.013V10.694a3.044,3.044,0,0,0-3.04-3.04Zm1.013,3.04v2.8H16.522V9.681h8.205A1.015,1.015,0,0,1,25.74,10.694Zm-6.126-5.8a1.652,1.652,0,0,1,1.3-.617,1.689,1.689,0,1,1,0,3.377H17.535C18.449,6.441,19.55,4.976,19.614,4.894ZM8.416,5.965A1.691,1.691,0,0,1,10.1,4.277a1.639,1.639,0,0,1,1.281.6c.07.1,1.179,1.566,2.1,2.782H10.1A1.691,1.691,0,0,1,8.416,5.965ZM5.276,10.694A1.015,1.015,0,0,1,6.29,9.681H14.5V13.5H5.276Zm1.351,9.18V15.522H14.5v7.391H9.667C7.537,22.913,6.627,22,6.627,19.873Zm17.762,0c0,2.13-.909,3.04-3.04,3.04H16.522V15.522h7.868Z" transform="translate(-3.25 -2.249)" fill="currentColor"/>
</svg>
