<svg id="google" xmlns="http://www.w3.org/2000/svg" width="24.047" height="24.047" viewBox="0 0 24.047 24.047">
  <path id="Path_141" data-name="Path 141" d="M277.724,211.479h-9.809a.784.784,0,0,0-.784.784V215.4a.784.784,0,0,0,.784.784h5.524a7.374,7.374,0,0,1-3.174,3.719l2.355,4.077a11.789,11.789,0,0,0,6.012-10.311,7.949,7.949,0,0,0-.135-1.54A.788.788,0,0,0,277.724,211.479Z" transform="translate(-254.585 -201.547)" fill="#167ee6"/>
  <path id="Path_142" data-name="Path 142" d="M44.818,337.509a7.317,7.317,0,0,1-6.33-3.662l-4.077,2.35A12.014,12.014,0,0,0,50.83,340.6V340.6l-2.355-4.077A7.264,7.264,0,0,1,44.818,337.509Z" transform="translate(-32.795 -318.167)" fill="#12b347"/>
  <path id="Path_143" data-name="Path 143" d="M262.012,394.862v-.006l-2.355-4.077a7.264,7.264,0,0,1-3.657.989v4.7A12,12,0,0,0,262.012,394.862Z" transform="translate(-243.977 -372.425)" fill="#0f993e"/>
  <path id="Path_144" data-name="Path 144" d="M4.7,134.125a7.264,7.264,0,0,1,.988-3.656l-4.077-2.35a11.968,11.968,0,0,0,0,12.012l4.077-2.35A7.264,7.264,0,0,1,4.7,134.125Z" transform="translate(0 -122.102)" fill="#ffd500"/>
  <path id="Path_145" data-name="Path 145" d="M44.818,4.7a7.285,7.285,0,0,1,4.646,1.668.781.781,0,0,0,1.051-.047l2.22-2.22a.79.79,0,0,0-.045-1.156,12,12,0,0,0-18.28,3.067l4.077,2.35A7.317,7.317,0,0,1,44.818,4.7Z" transform="translate(-32.795)" fill="#ff4b26"/>
  <path id="Path_146" data-name="Path 146" d="M260.646,6.373a.781.781,0,0,0,1.051-.047l2.22-2.22a.79.79,0,0,0-.045-1.156A11.987,11.987,0,0,0,256,0V4.7A7.285,7.285,0,0,1,260.646,6.373Z" transform="translate(-243.977)" fill="#d93f21"/>
</svg>
