<svg xmlns="http://www.w3.org/2000/svg" width="20" height="18" viewBox="0 0 20 18">
  <g id="love" transform="translate(-161.07 -65.42)">
    <path id="Path_114" data-name="Path 114" d="M162.7,75.016a5.632,5.632,0,0,1,7.983-7.947l.385.385.385-.385a5.632,5.632,0,0,1,7.982,7.947l-7.641,8.09a1,1,0,0,1-1.454,0Zm8.368,5.947,6.916-7.322.021-.021a3.633,3.633,0,1,0-5.138-5.137l-1.091,1.092a1,1,0,0,1-1.414,0l-1.092-1.092a3.632,3.632,0,0,0-5.137,5.137l.02.021Z" fill="#026670" fill-rule="evenodd"/>
  </g>
</svg>
