<svg xmlns="http://www.w3.org/2000/svg" width="12.157" height="16.528" viewBox="0 0 12.157 16.528">
  <g id="g183" transform="translate(-1.471 681.639)">
    <g id="g185" transform="translate(-0.576 -681.254)">
      <g id="Group_51" data-name="Group 51">
        <g id="g193" transform="translate(3.047 6.525)">
          <path id="path195" d="M-312.381-364.714h-5.079A2.5,2.5,0,0,1-320-367.176v-3.694a2.5,2.5,0,0,1,2.539-2.462h5.079a2.5,2.5,0,0,1,2.539,2.462v3.694A2.5,2.5,0,0,1-312.381-364.714Z" transform="translate(319.999 373.332)" fill="none" stroke="#bfbebb" stroke-linecap="round" stroke-linejoin="round" stroke-miterlimit="10" stroke-width="2"/>
        </g>
        <g id="g197" transform="translate(5.586 0.616)">
          <path id="path199" d="M0-145.886v-.985a2.5,2.5,0,0,1,2.539-2.462,2.5,2.5,0,0,1,2.539,2.462v.985" transform="translate(0 149.333)" fill="none" stroke="#bfbebb" stroke-linecap="round" stroke-linejoin="round" stroke-miterlimit="10" stroke-width="2"/>
        </g>
        <g id="g201" transform="translate(8.126 11.45)">
          <path id="path203" d="M0-52.1v-1.231" transform="translate(0 53.333)" fill="none" stroke="#bfbebb" stroke-linecap="round" stroke-linejoin="round" stroke-miterlimit="10" stroke-width="2"/>
        </g>
        <g id="g205" transform="translate(6.221 8.372)">
          <path id="path207" d="M-102.856-51.486a1.877,1.877,0,0,1-1.905,1.847,1.877,1.877,0,0,1-1.905-1.847,1.877,1.877,0,0,1,1.905-1.847A1.877,1.877,0,0,1-102.856-51.486Z" transform="translate(106.666 53.333)" fill="#bfbebb"/>
        </g>
      </g>
    </g>
  </g>
</svg>
