<svg xmlns="http://www.w3.org/2000/svg" width="61.593" height="16.62" viewBox="0 0 61.593 16.62">
  <g id="paypal" transform="translate(-32.835 -194.897)">
    <path id="Path_1262" data-name="Path 1262" d="M354.6,221.2h-4.749a.928.928,0,0,0-.7.559L347.2,234.049a.37.37,0,0,0,.419.419h2.514a.37.37,0,0,0,.419-.419l.559-3.492a.639.639,0,0,1,.7-.559h1.536q4.819,0,5.447-4.609a3.661,3.661,0,0,0-.559-3.073A5.633,5.633,0,0,0,354.6,221.2m.559,4.609c-.279,1.676-1.536,1.676-2.793,1.676h-.838l.559-3.212c0-.14.14-.279.419-.279h.279c.838,0,1.676,0,2.1.559.279.14.279.559.279,1.257" transform="translate(-280.147 -26.303)" fill="#139ad6"/>
    <g id="Group_1573" data-name="Group 1573" transform="translate(32.835 194.897)">
      <path id="Path_1263" data-name="Path 1263" d="M158.6,221.2h-4.749a.928.928,0,0,0-.7.559L151.2,234.049a.37.37,0,0,0,.419.419h2.235a.928.928,0,0,0,.7-.559l.559-3.352a.639.639,0,0,1,.7-.559h1.536q4.818,0,5.447-4.609a3.661,3.661,0,0,0-.559-3.073A5.368,5.368,0,0,0,158.6,221.2m.559,4.609c-.279,1.676-1.536,1.676-2.793,1.676h-.7l.559-3.212c0-.14.14-.279.419-.279h.279c.838,0,1.676,0,2.095.559a1.5,1.5,0,0,1,.14,1.257" transform="translate(-151.2 -221.2)" fill="#263b80"/>
      <path id="Path_1264" data-name="Path 1264" d="M224.741,245.479h-2.235c-.14,0-.419.14-.419.279l-.14.7-.14-.279a3.285,3.285,0,0,0-2.654-.978,5.367,5.367,0,0,0-5.168,4.609,4.163,4.163,0,0,0,.838,3.492,3.519,3.519,0,0,0,2.933,1.117,4.464,4.464,0,0,0,3.212-1.257l-.14.7a.37.37,0,0,0,.419.419h2.1a.928.928,0,0,0,.7-.559L225.3,245.9c-.14-.14-.419-.419-.559-.419m-3.212,4.469a2.7,2.7,0,0,1-2.654,2.235,2.234,2.234,0,0,1-1.536-.559,2.978,2.978,0,0,1-.419-1.676,2.491,2.491,0,0,1,4.05-1.676,2.438,2.438,0,0,1,.559,1.676" transform="translate(-202.953 -241.01)" fill="#263b80"/>
    </g>
    <path id="Path_1265" data-name="Path 1265" d="M419.941,245.479h-2.235c-.14,0-.419.14-.419.279l-.14.7-.14-.279a3.285,3.285,0,0,0-2.654-.978,5.367,5.367,0,0,0-5.168,4.609,4.163,4.163,0,0,0,.838,3.492,3.519,3.519,0,0,0,2.933,1.117,4.464,4.464,0,0,0,3.212-1.257l-.14.7a.37.37,0,0,0,.419.419h2.1a.928.928,0,0,0,.7-.559L420.5,245.9c-.14-.14-.279-.419-.559-.419m-3.212,4.469a2.7,2.7,0,0,1-2.654,2.235,2.233,2.233,0,0,1-1.536-.559,2.978,2.978,0,0,1-.419-1.676,2.491,2.491,0,0,1,4.05-1.676,1.6,1.6,0,0,1,.559,1.676" transform="translate(-331.239 -46.113)" fill="#139ad6"/>
    <path id="Path_1266" data-name="Path 1266" d="M294.754,246.8H292.38a.726.726,0,0,0-.559.279l-3.073,4.749-1.4-4.469a.645.645,0,0,0-.7-.419h-2.235c-.279,0-.419.279-.419.559l2.514,7.4-2.374,3.352c-.14.279,0,.7.279.7h2.235a.726.726,0,0,0,.559-.279l7.682-11.034c.419-.419.14-.838-.14-.838" transform="translate(-227.981 -47.434)" fill="#263b80"/>
    <path id="Path_1267" data-name="Path 1267" d="M477.155,222.02,475.2,234.59a.37.37,0,0,0,.419.419h1.955a.928.928,0,0,0,.7-.559l1.955-12.291a.37.37,0,0,0-.419-.419h-2.235c-.14-.14-.279,0-.419.279" transform="translate(-385.8 -26.705)" fill="#139ad6"/>
  </g>
</svg>
