<svg xmlns="http://www.w3.org/2000/svg" width="10" height="10.09" viewBox="0 0 10 10.09">
  <path id="office-push-pin" d="M10.789,2.89,7.976.077a.26.26,0,0,0-.368,0L7.6.088a.913.913,0,0,0-.153,1.088L4.5,3.7a1.228,1.228,0,0,0-1.686.048l-.018.018a.26.26,0,0,0,0,.368L4.48,5.822,2.838,7.464c-.033.034-.81.834-1.321,1.472-.486.607-.583.718-.588.723a.26.26,0,0,0,.367.367s.113-.1.723-.588c.637-.511,1.438-1.288,1.474-1.323L5.134,6.476l1.6,1.6a.26.26,0,0,0,.368,0l.018-.018a1.228,1.228,0,0,0,.048-1.686L9.69,3.424a.913.913,0,0,0,1.088-.153l.012-.012A.26.26,0,0,0,10.789,2.89Z" transform="translate(-0.865 0)" fill="#fff"/>
</svg>
