<svg xmlns="http://www.w3.org/2000/svg" width="16" height="20" viewBox="0 0 16 20">
  <g id="play" transform="translate(-260 -793)">
    <g id="Polygon_1" data-name="Polygon 1" transform="translate(276 793) rotate(90)" fill="none">
      <path d="M8.3,2.714a2,2,0,0,1,3.392,0L18.088,12.94a2,2,0,0,1-1.7,3.06H3.608a2,2,0,0,1-1.7-3.06Z" stroke="none"/>
      <path d="M 10 3.773589134216309 L 3.608499526977539 13.99999904632568 L 16.39150047302246 13.99999904632568 L 10 3.773589134216309 M 10 1.773591995239258 C 10.65216541290283 1.773591995239258 11.30432987213135 2.08692455291748 11.69600009918213 2.713589668273926 L 18.08749961853027 12.93999862670898 C 18.92005920410156 14.27209949493408 17.96237945556641 15.99999904632568 16.39150047302246 15.99999904632568 L 3.608499526977539 15.99999904632568 C 2.037620544433594 15.99999904632568 1.079940795898438 14.27209949493408 1.912500381469727 12.93999862670898 L 8.303999900817871 2.713589668273926 C 8.695670127868652 2.08692455291748 9.347834587097168 1.773591995239258 10 1.773591995239258 Z" stroke="none" fill="currentColor"/>
    </g>
  </g>
</svg>
