<svg id="printer-3" xmlns="http://www.w3.org/2000/svg" width="24.033" height="24.033" viewBox="0 0 24.033 24.033">
  <path id="Path_135" data-name="Path 135" d="M2.535,19.151h1.6v2.816A2.068,2.068,0,0,0,6.2,24.033H17.837A2.068,2.068,0,0,0,19.9,21.968V19.151h1.6a2.538,2.538,0,0,0,2.535-2.535V7.792A2.538,2.538,0,0,0,21.5,5.257H19.9V2.065A2.068,2.068,0,0,0,17.837,0H6.2A2.068,2.068,0,0,0,4.131,2.065V5.257h-1.6A2.538,2.538,0,0,0,0,7.792v8.825A2.538,2.538,0,0,0,2.535,19.151ZM17.649,21.78H6.384V14.27H17.649ZM6.384,2.253H17.649v3H6.384ZM2.253,7.792a.282.282,0,0,1,.282-.282H21.5a.282.282,0,0,1,.282.282v8.825a.282.282,0,0,1-.282.282H19.9V13.143a1.127,1.127,0,0,0-1.127-1.127H5.257a1.127,1.127,0,0,0-1.127,1.127V16.9h-1.6a.282.282,0,0,1-.282-.282Z" fill="#026670"/>
  <path id="Path_136" data-name="Path 136" d="M73.142,186.253a1.127,1.127,0,0,0,0-2.253h0a1.127,1.127,0,1,0,0,2.253Z" transform="translate(-68.635 -175.363)" fill="#026670"/>
</svg>
