<svg xmlns="http://www.w3.org/2000/svg" width="16" height="19.294" viewBox="0 0 16 19.294">
  <g id="replay" transform="translate(-4 -1.706)">
    <path id="Path_1251" data-name="Path 1251" d="M11.146,1.854A.5.5,0,0,1,12,2.207V9.793a.5.5,0,0,1-.854.354L7.354,6.354a.5.5,0,0,1,0-.707Z" fill="#026670" fill-rule="evenodd"/>
    <path id="Path_1252" data-name="Path 1252" d="M11,6a1,1,0,0,1,1-1,8,8,0,1,1-8,8,1,1,0,0,1,2,0,6,6,0,1,0,6-6A1,1,0,0,1,11,6Z" fill="#026670" fill-rule="evenodd"/>
  </g>
</svg>
