<svg xmlns="http://www.w3.org/2000/svg" width="19.996" height="19.996" viewBox="0 0 19.996 19.996">
  <g id="search" transform="translate(-1.06 -1.058)">
    <path id="circle11247" d="M8.915,1.058a7.856,7.856,0,1,0,4.741,14.112L17.084,18.6A1.071,1.071,0,1,0,18.6,17.085L15.17,13.656a7.848,7.848,0,0,0-6.255-12.6Zm0,2.143A5.713,5.713,0,1,1,3.2,8.913,5.695,5.695,0,0,1,8.915,3.2Z" fill="#026670"/>
    <path id="path11253" d="M15.364,14.294a1.07,1.07,0,1,0,1.073,1.07,1.071,1.071,0,0,0-1.073-1.07Z" transform="translate(4.619 4.62)" fill="#026670"/>
  </g>
</svg>
