<svg id="share" xmlns="http://www.w3.org/2000/svg" width="19.092" height="20.828" viewBox="0 0 19.092 20.828">
  <path id="Path_125" data-name="Path 125" d="M320.309,18.82a2.82,2.82,0,1,1-2.82-2.82A2.82,2.82,0,0,1,320.309,18.82Zm0,0" transform="translate(-301.867 -15.349)" fill="currentColor"/>
  <path id="Path_126" data-name="Path 126" d="M302.139,6.943a3.471,3.471,0,1,1,3.471-3.471A3.475,3.475,0,0,1,302.139,6.943Zm0-5.641a2.17,2.17,0,1,0,2.17,2.17A2.172,2.172,0,0,0,302.139,1.3Zm0,0" transform="translate(-286.518)" fill="currentColor"/>
  <path id="Path_127" data-name="Path 127" d="M320.309,360.153a2.82,2.82,0,1,1-2.82-2.821A2.82,2.82,0,0,1,320.309,360.153Zm0,0" transform="translate(-301.867 -342.796)" fill="currentColor"/>
  <path id="Path_128" data-name="Path 128" d="M302.139,348.275a3.471,3.471,0,1,1,3.471-3.471A3.475,3.475,0,0,1,302.139,348.275Zm0-5.641a2.17,2.17,0,1,0,2.17,2.17A2.172,2.172,0,0,0,302.139,342.634Zm0,0" transform="translate(-286.518 -327.447)" fill="currentColor"/>
  <path id="Path_129" data-name="Path 129" d="M21.641,189.488a2.82,2.82,0,1,1-2.821-2.82A2.82,2.82,0,0,1,21.641,189.488Zm0,0" transform="translate(-15.349 -179.074)" fill="currentColor"/>
  <path id="Path_130" data-name="Path 130" d="M3.471,177.611a3.471,3.471,0,1,1,3.471-3.471A3.475,3.475,0,0,1,3.471,177.611Zm0-5.641a2.17,2.17,0,1,0,2.17,2.17A2.172,2.172,0,0,0,3.471,171.97Zm0,0" transform="translate(0 -163.725)" fill="currentColor"/>
  <path id="Path_131" data-name="Path 131" d="M115.217,96.542a.868.868,0,0,1-.43-1.622l8.053-4.591a.868.868,0,1,1,.859,1.508l-8.053,4.591A.862.862,0,0,1,115.217,96.542Zm0,0" transform="translate(-109.697 -86.545)" fill="currentColor"/>
  <path id="Path_132" data-name="Path 132" d="M123.291,272.546a.862.862,0,0,1-.429-.114l-8.053-4.591a.868.868,0,0,1,.859-1.508l8.053,4.591a.868.868,0,0,1-.43,1.622Zm0,0" transform="translate(-109.718 -255.389)" fill="currentColor"/>
</svg>
