<svg xmlns="http://www.w3.org/2000/svg" width="17.14" height="19.997" viewBox="0 0 17.14 19.997">
  <g id="user" transform="translate(-2.119 -1.059)">
    <path id="circle9818" d="M10.688,1.059A4.992,4.992,0,0,0,7.22,9.65a8.589,8.589,0,0,0-5.1,7.835v.359a3.229,3.229,0,0,0,3.213,3.213H9.615a1.071,1.071,0,1,0,0-2.143H5.332a1.057,1.057,0,0,1-1.073-1.071v-.359a6.428,6.428,0,0,1,12.856,0v.359a1.054,1.054,0,0,1-1.07,1.071,1.071,1.071,0,1,0,0,2.143,3.229,3.229,0,0,0,3.213-3.213v-.359a8.588,8.588,0,0,0-5.1-7.835,4.992,4.992,0,0,0-3.466-8.591Zm0,2.143A2.856,2.856,0,1,1,7.831,6.057,2.84,2.84,0,0,1,10.688,3.2Z" transform="translate(0 0)" fill="#026670"/>
    <path id="path9835" d="M10.337,14.293a1.072,1.072,0,1,0,1.07,1.07,1.071,1.071,0,0,0-1.07-1.07Z" transform="translate(2.495 4.621)" fill="#026670"/>
  </g>
</svg>
