<svg xmlns="http://www.w3.org/2000/svg" width="23.208" height="21.367" viewBox="0 0 23.208 21.367">
  <g id="volume" transform="translate(-1.893 -2)">
    <g id="Group_16" data-name="Group 16" transform="translate(0.103 0)">
      <g id="Group_15" data-name="Group 15">
        <path id="Path_115" data-name="Path 115" d="M15.091,2.247a3.013,3.013,0,0,0-3.322.628q-.032.031-.06.064L5.955,8.619h0a4.067,4.067,0,0,0-4.062,4.062h0a4.067,4.067,0,0,0,4.062,4.062h0l5.754,5.68q.029.033.06.064a3.03,3.03,0,0,0,2.125.88A3.1,3.1,0,0,0,15.1,23.12a3,3,0,0,0,1.861-2.806,1.016,1.016,0,0,0-2.031,0,1,1,0,0,1-.619.935,1.015,1.015,0,0,1-1.1-.189L7.19,15.065a1.015,1.015,0,0,0-.769-.353H5.955a2.033,2.033,0,0,1-2.031-2.031h0a2.033,2.033,0,0,1,2.031-2.031H6.42A1.016,1.016,0,0,0,7.19,10.3L13.214,4.3a1.026,1.026,0,0,1,1.715.76V15.876a1.016,1.016,0,0,0,2.031,0V5.064A3.013,3.013,0,0,0,15.091,2.247Z" transform="translate(-0.103 0)" fill="currentColor"/>
        <path id="Path_116" data-name="Path 116" d="M380.856,194.368l.023-.043a5.839,5.839,0,0,0-.032-5.817,1.016,1.016,0,1,0-1.767,1,3.552,3.552,0,0,1,.528,1.936,3.63,3.63,0,0,1-.512,1.907l-.025.046a1.015,1.015,0,1,0,1.785.969Z" transform="translate(-360.704 -178.763)" fill="currentColor"/>
        <path id="Path_117" data-name="Path 117" d="M413.668,92.845a1.016,1.016,0,1,0-1.429,1.443,9.218,9.218,0,0,1,0,13.127,1.015,1.015,0,1,0,1.429,1.443,11.249,11.249,0,0,0,0-16.014Z" transform="translate(-392.018 -88.168)" fill="currentColor"/>
      </g>
    </g>
  </g>
</svg>
