<svg xmlns="http://www.w3.org/2000/svg" width="21.318" height="21.522" viewBox="0 0 21.318 21.522">
  <g id="writing" transform="translate(-28.57 -6)">
    <g id="Group_24" data-name="Group 24" transform="translate(26.57)">
      <g id="Group_23" data-name="Group 23">
        <path id="Path_121" data-name="Path 121" d="M119.338,201.047A1.047,1.047,0,0,0,118.291,200h-7.785a1.047,1.047,0,1,0,0,2.094h7.785A1.047,1.047,0,0,0,119.338,201.047Z" transform="translate(-102.277 -189.529)" fill="#026670"/>
        <path id="Path_122" data-name="Path 122" d="M109.506,280a1.047,1.047,0,0,0,0,2.094h4.55a1.047,1.047,0,0,0,0-2.094Z" transform="translate(-101.277 -265.341)" fill="#026670"/>
        <path id="Path_123" data-name="Path 123" d="M35.26,24.711h-2.5a2.1,2.1,0,0,1-2.094-2.094V10.188a2.1,2.1,0,0,1,2.094-2.094H43.631a2.1,2.1,0,0,1,2.094,2.094v1.439a1.047,1.047,0,1,0,2.094,0V10.188A4.193,4.193,0,0,0,43.631,6H32.758a4.193,4.193,0,0,0-4.188,4.188V22.616A4.193,4.193,0,0,0,32.758,26.8h2.5a1.047,1.047,0,1,0,0-2.094Z" transform="translate(-26.57)" fill="#026670"/>
        <rect id="Rectangle_87" data-name="Rectangle 87" width="2.2" height="8" rx="1.1" transform="translate(11.919 21.766) rotate(-45)" fill="#026670"/>
        <rect id="Rectangle_88" data-name="Rectangle 88" width="2.2" height="8" rx="1.1" transform="translate(17.662 27.522) rotate(-135)" fill="#026670"/>
      </g>
    </g>
  </g>
</svg>
